solid OpenSCAD_Model
  facet normal 0 0 -1
    outer loop
      vertex -2.4831 -0.290232 -0.625
      vertex -2.4831 0.290232 -0.625
      vertex -2.34923 -0.85505 -0.625
    endloop
  endfacet
  facet normal 0 0 -1
    outer loop
      vertex -2.34923 -0.85505 -0.625
      vertex -2.4831 0.290232 -0.625
      vertex -2.34923 0.85505 -0.625
    endloop
  endfacet
  facet normal 0 0 -1
    outer loop
      vertex -2.34923 -0.85505 -0.625
      vertex -2.34923 0.85505 -0.625
      vertex -2.08872 1.37377 -0.625
    endloop
  endfacet
  facet normal 0 0 -1
    outer loop
      vertex -2.34923 -0.85505 -0.625
      vertex -2.08872 1.37377 -0.625
      vertex -1.7156 1.81843 -0.625
    endloop
  endfacet
  facet normal 0 0 -1
    outer loop
      vertex -2.34923 -0.85505 -0.625
      vertex -1.7156 1.81843 -0.625
      vertex -1.25 2.16506 -0.625
    endloop
  endfacet
  facet normal 0 0 -1
    outer loop
      vertex -2.34923 -0.85505 -0.625
      vertex -1.25 2.16506 -0.625
      vertex -0.717008 2.39497 -0.625
    endloop
  endfacet
  facet normal 0 0 -1
    outer loop
      vertex -2.34923 -0.85505 -0.625
      vertex -0.717008 2.39497 -0.625
      vertex -0.145362 2.49577 -0.625
    endloop
  endfacet
  facet normal 0 0 -1
    outer loop
      vertex -2.34923 -0.85505 -0.625
      vertex -0.145362 2.49577 -0.625
      vertex 0.43412 2.46202 -0.625
    endloop
  endfacet
  facet normal 0 0 -1
    outer loop
      vertex -2.34923 -0.85505 -0.625
      vertex 0.43412 2.46202 -0.625
      vertex 0.990199 2.29554 -0.625
    endloop
  endfacet
  facet normal 0 0 -1
    outer loop
      vertex -2.34923 -0.85505 -0.625
      vertex 0.990199 2.29554 -0.625
      vertex 1.4929 2.00531 -0.625
    endloop
  endfacet
  facet normal 0 0 -1
    outer loop
      vertex -0.133513 0.584957 -0.625
      vertex 1.4929 2.00531 -0.625
      vertex 1.91511 1.60697 -0.625
    endloop
  endfacet
  facet normal 0 0 -1
    outer loop
      vertex 0.374094 0.469099 -0.625
      vertex 1.91511 1.60697 -0.625
      vertex 2.23408 1.122 -0.625
    endloop
  endfacet
  facet normal 0 0 -1
    outer loop
      vertex 0.6 0 -0.625
      vertex 2.43261 0.57654 -0.625
      vertex 2.5 0 -0.625
    endloop
  endfacet
  facet normal 0 0 -1
    outer loop
      vertex -0.133513 -0.584957 -0.625
      vertex 2.5 0 -0.625
      vertex 2.43261 -0.57654 -0.625
    endloop
  endfacet
  facet normal 0 0 -1
    outer loop
      vertex -2.34923 -0.85505 -0.625
      vertex 2.43261 -0.57654 -0.625
      vertex 2.23408 -1.122 -0.625
    endloop
  endfacet
  facet normal 0 0 -1
    outer loop
      vertex -2.34923 -0.85505 -0.625
      vertex 2.23408 -1.122 -0.625
      vertex 1.91511 -1.60697 -0.625
    endloop
  endfacet
  facet normal 0 0 -1
    outer loop
      vertex -2.34923 -0.85505 -0.625
      vertex 1.91511 -1.60697 -0.625
      vertex 1.4929 -2.00531 -0.625
    endloop
  endfacet
  facet normal 0 0 -1
    outer loop
      vertex -2.34923 -0.85505 -0.625
      vertex 1.4929 -2.00531 -0.625
      vertex 0.990199 -2.29554 -0.625
    endloop
  endfacet
  facet normal 0 0 -1
    outer loop
      vertex -2.34923 -0.85505 -0.625
      vertex 0.990199 -2.29554 -0.625
      vertex 0.43412 -2.46202 -0.625
    endloop
  endfacet
  facet normal 0 0 -1
    outer loop
      vertex -2.34923 -0.85505 -0.625
      vertex 0.43412 -2.46202 -0.625
      vertex -0.145362 -2.49577 -0.625
    endloop
  endfacet
  facet normal 0 0 -1
    outer loop
      vertex -2.34923 -0.85505 -0.625
      vertex -0.145362 -2.49577 -0.625
      vertex -0.717008 -2.39497 -0.625
    endloop
  endfacet
  facet normal 0 0 -1
    outer loop
      vertex -2.34923 -0.85505 -0.625
      vertex -0.717008 -2.39497 -0.625
      vertex -1.25 -2.16506 -0.625
    endloop
  endfacet
  facet normal 0 0 -1
    outer loop
      vertex -2.34923 -0.85505 -0.625
      vertex -1.25 -2.16506 -0.625
      vertex -1.7156 -1.81843 -0.625
    endloop
  endfacet
  facet normal 0 0 -1
    outer loop
      vertex -2.34923 -0.85505 -0.625
      vertex -1.7156 -1.81843 -0.625
      vertex -2.08872 -1.37377 -0.625
    endloop
  endfacet
  facet normal 0 0 -1
    outer loop
      vertex -2.34923 -0.85505 -0.625
      vertex 1.4929 2.00531 -0.625
      vertex -0.540581 0.26033 -0.625
    endloop
  endfacet
  facet normal 0 0 -1
    outer loop
      vertex 0.374094 0.469099 -0.625
      vertex 2.43261 0.57654 -0.625
      vertex 0.6 0 -0.625
    endloop
  endfacet
  facet normal 0 0 -1
    outer loop
      vertex -0.133513 -0.584957 -0.625
      vertex -2.34923 -0.85505 -0.625
      vertex -0.540581 -0.26033 -0.625
    endloop
  endfacet
  facet normal 0 0 -1
    outer loop
      vertex 0.374094 -0.469099 -0.625
      vertex 2.5 0 -0.625
      vertex -0.133513 -0.584957 -0.625
    endloop
  endfacet
  facet normal 0 0 -1
    outer loop
      vertex -2.34923 -0.85505 -0.625
      vertex -0.133513 -0.584957 -0.625
      vertex 2.43261 -0.57654 -0.625
    endloop
  endfacet
  facet normal 0 0 -1
    outer loop
      vertex 0.6 0 -0.625
      vertex 2.5 0 -0.625
      vertex 0.374094 -0.469099 -0.625
    endloop
  endfacet
  facet normal 0 0 -1
    outer loop
      vertex 0.374094 0.469099 -0.625
      vertex 2.23408 1.122 -0.625
      vertex 2.43261 0.57654 -0.625
    endloop
  endfacet
  facet normal 0 0 -1
    outer loop
      vertex -0.540581 0.26033 -0.625
      vertex 1.4929 2.00531 -0.625
      vertex -0.133513 0.584957 -0.625
    endloop
  endfacet
  facet normal 0 0 -1
    outer loop
      vertex -0.540581 -0.26033 -0.625
      vertex -2.34923 -0.85505 -0.625
      vertex -0.540581 0.26033 -0.625
    endloop
  endfacet
  facet normal 0 0 -1
    outer loop
      vertex -0.133513 0.584957 -0.625
      vertex 1.91511 1.60697 -0.625
      vertex 0.374094 0.469099 -0.625
    endloop
  endfacet
  facet normal -1 0 0
    outer loop
      vertex -2.4831 -0.290232 -0.625
      vertex -2.4831 -0.290232 0.625
      vertex -2.4831 0.290232 -0.625
    endloop
  endfacet
  facet normal -1 0 0
    outer loop
      vertex -2.4831 0.290232 -0.625
      vertex -2.4831 -0.290232 0.625
      vertex -2.4831 0.290232 0.625
    endloop
  endfacet
  facet normal -0.973045 -0.230615 0
    outer loop
      vertex -2.4831 -0.290232 -0.625
      vertex -2.34923 -0.85505 -0.625
      vertex -2.4831 -0.290232 0.625
    endloop
  endfacet
  facet normal -0.973045 -0.230615 0
    outer loop
      vertex -2.4831 -0.290232 0.625
      vertex -2.34923 -0.85505 -0.625
      vertex -2.34923 -0.85505 0.625
    endloop
  endfacet
  facet normal -0.893633 -0.448799 0
    outer loop
      vertex -2.34923 -0.85505 -0.625
      vertex -2.08872 -1.37377 -0.625
      vertex -2.34923 -0.85505 0.625
    endloop
  endfacet
  facet normal -0.893633 -0.448799 0
    outer loop
      vertex -2.34923 -0.85505 0.625
      vertex -2.08872 -1.37377 -0.625
      vertex -2.08872 -1.37377 0.625
    endloop
  endfacet
  facet normal -0.766044 -0.642788 0
    outer loop
      vertex -2.08872 -1.37377 -0.625
      vertex -1.7156 -1.81843 -0.625
      vertex -2.08872 -1.37377 0.625
    endloop
  endfacet
  facet normal -0.766044 -0.642788 0
    outer loop
      vertex -2.08872 -1.37377 0.625
      vertex -1.7156 -1.81843 -0.625
      vertex -1.7156 -1.81843 0.625
    endloop
  endfacet
  facet normal -0.597159 -0.802123 0
    outer loop
      vertex -1.7156 -1.81843 0.625
      vertex -1.7156 -1.81843 -0.625
      vertex -1.25 -2.16506 -0.625
    endloop
  endfacet
  facet normal -0.597159 -0.802123 0
    outer loop
      vertex -1.25 -2.16506 0.625
      vertex -1.7156 -1.81843 0.625
      vertex -1.25 -2.16506 -0.625
    endloop
  endfacet
  facet normal -0.396079 -0.918216 0
    outer loop
      vertex -1.25 -2.16506 0.625
      vertex -1.25 -2.16506 -0.625
      vertex -0.717008 -2.39497 -0.625
    endloop
  endfacet
  facet normal -0.396079 -0.918216 0
    outer loop
      vertex -0.717008 -2.39497 0.625
      vertex -1.25 -2.16506 0.625
      vertex -0.717008 -2.39497 -0.625
    endloop
  endfacet
  facet normal -0.173647 -0.984808 0
    outer loop
      vertex -0.717008 -2.39497 0.625
      vertex -0.717008 -2.39497 -0.625
      vertex -0.145362 -2.49577 -0.625
    endloop
  endfacet
  facet normal -0.173647 -0.984808 0
    outer loop
      vertex -0.145362 -2.49577 0.625
      vertex -0.717008 -2.39497 0.625
      vertex -0.145362 -2.49577 -0.625
    endloop
  endfacet
  facet normal 0.0581449 -0.998308 0
    outer loop
      vertex -0.145362 -2.49577 0.625
      vertex -0.145362 -2.49577 -0.625
      vertex 0.43412 -2.46202 -0.625
    endloop
  endfacet
  facet normal 0.0581449 -0.998308 0
    outer loop
      vertex 0.43412 -2.46202 0.625
      vertex -0.145362 -2.49577 0.625
      vertex 0.43412 -2.46202 -0.625
    endloop
  endfacet
  facet normal 0.286803 -0.95799 0
    outer loop
      vertex 0.43412 -2.46202 0.625
      vertex 0.43412 -2.46202 -0.625
      vertex 0.990199 -2.29554 -0.625
    endloop
  endfacet
  facet normal 0.286803 -0.95799 0
    outer loop
      vertex 0.990199 -2.29554 0.625
      vertex 0.43412 -2.46202 0.625
      vertex 0.990199 -2.29554 -0.625
    endloop
  endfacet
  facet normal 0.5 -0.866026 0
    outer loop
      vertex 0.990199 -2.29554 0.625
      vertex 0.990199 -2.29554 -0.625
      vertex 1.4929 -2.00531 -0.625
    endloop
  endfacet
  facet normal 0.5 -0.866026 0
    outer loop
      vertex 1.4929 -2.00531 0.625
      vertex 0.990199 -2.29554 0.625
      vertex 1.4929 -2.00531 -0.625
    endloop
  endfacet
  facet normal 0.686241 -0.727374 0
    outer loop
      vertex 1.4929 -2.00531 0.625
      vertex 1.4929 -2.00531 -0.625
      vertex 1.91511 -1.60697 -0.625
    endloop
  endfacet
  facet normal 0.686241 -0.727374 0
    outer loop
      vertex 1.91511 -1.60697 0.625
      vertex 1.4929 -2.00531 0.625
      vertex 1.91511 -1.60697 -0.625
    endloop
  endfacet
  facet normal 0.835487 -0.54951 0
    outer loop
      vertex 1.91511 -1.60697 0.625
      vertex 1.91511 -1.60697 -0.625
      vertex 2.23408 -1.122 -0.625
    endloop
  endfacet
  facet normal 0.835487 -0.54951 0
    outer loop
      vertex 2.23408 -1.122 0.625
      vertex 1.91511 -1.60697 0.625
      vertex 2.23408 -1.122 -0.625
    endloop
  endfacet
  facet normal 0.939693 -0.342019 0
    outer loop
      vertex 2.23408 -1.122 0.625
      vertex 2.23408 -1.122 -0.625
      vertex 2.43261 -0.57654 -0.625
    endloop
  endfacet
  facet normal 0.939693 -0.342019 0
    outer loop
      vertex 2.43261 -0.57654 0.625
      vertex 2.23408 -1.122 0.625
      vertex 2.43261 -0.57654 -0.625
    endloop
  endfacet
  facet normal 0.993238 -0.116093 0
    outer loop
      vertex 2.43261 -0.57654 0.625
      vertex 2.43261 -0.57654 -0.625
      vertex 2.5 0 -0.625
    endloop
  endfacet
  facet normal 0.993238 -0.116093 0
    outer loop
      vertex 2.5 0 0.625
      vertex 2.43261 -0.57654 0.625
      vertex 2.5 0 -0.625
    endloop
  endfacet
  facet normal 0.993238 0.116093 0
    outer loop
      vertex 2.5 0 -0.625
      vertex 2.43261 0.57654 -0.625
      vertex 2.43261 0.57654 0.625
    endloop
  endfacet
  facet normal 0.993238 0.116093 0
    outer loop
      vertex 2.5 0 0.625
      vertex 2.5 0 -0.625
      vertex 2.43261 0.57654 0.625
    endloop
  endfacet
  facet normal 0.939693 0.342019 0
    outer loop
      vertex 2.43261 0.57654 -0.625
      vertex 2.23408 1.122 -0.625
      vertex 2.23408 1.122 0.625
    endloop
  endfacet
  facet normal 0.939693 0.342019 0
    outer loop
      vertex 2.43261 0.57654 0.625
      vertex 2.43261 0.57654 -0.625
      vertex 2.23408 1.122 0.625
    endloop
  endfacet
  facet normal 0.835487 0.54951 0
    outer loop
      vertex 2.23408 1.122 -0.625
      vertex 1.91511 1.60697 -0.625
      vertex 1.91511 1.60697 0.625
    endloop
  endfacet
  facet normal 0.835487 0.54951 0
    outer loop
      vertex 2.23408 1.122 0.625
      vertex 2.23408 1.122 -0.625
      vertex 1.91511 1.60697 0.625
    endloop
  endfacet
  facet normal 0.686241 0.727374 0
    outer loop
      vertex 1.4929 2.00531 -0.625
      vertex 1.4929 2.00531 0.625
      vertex 1.91511 1.60697 -0.625
    endloop
  endfacet
  facet normal 0.686241 0.727374 0
    outer loop
      vertex 1.91511 1.60697 -0.625
      vertex 1.4929 2.00531 0.625
      vertex 1.91511 1.60697 0.625
    endloop
  endfacet
  facet normal 0.5 0.866026 0
    outer loop
      vertex 0.990199 2.29554 -0.625
      vertex 0.990199 2.29554 0.625
      vertex 1.4929 2.00531 -0.625
    endloop
  endfacet
  facet normal 0.5 0.866026 0
    outer loop
      vertex 1.4929 2.00531 -0.625
      vertex 0.990199 2.29554 0.625
      vertex 1.4929 2.00531 0.625
    endloop
  endfacet
  facet normal 0.286803 0.95799 0
    outer loop
      vertex 0.43412 2.46202 -0.625
      vertex 0.43412 2.46202 0.625
      vertex 0.990199 2.29554 -0.625
    endloop
  endfacet
  facet normal 0.286803 0.95799 0
    outer loop
      vertex 0.990199 2.29554 -0.625
      vertex 0.43412 2.46202 0.625
      vertex 0.990199 2.29554 0.625
    endloop
  endfacet
  facet normal 0.0581449 0.998308 0
    outer loop
      vertex -0.145362 2.49577 -0.625
      vertex -0.145362 2.49577 0.625
      vertex 0.43412 2.46202 -0.625
    endloop
  endfacet
  facet normal 0.0581449 0.998308 0
    outer loop
      vertex 0.43412 2.46202 -0.625
      vertex -0.145362 2.49577 0.625
      vertex 0.43412 2.46202 0.625
    endloop
  endfacet
  facet normal -0.173647 0.984808 0
    outer loop
      vertex -0.717008 2.39497 -0.625
      vertex -0.717008 2.39497 0.625
      vertex -0.145362 2.49577 -0.625
    endloop
  endfacet
  facet normal -0.173647 0.984808 0
    outer loop
      vertex -0.145362 2.49577 -0.625
      vertex -0.717008 2.39497 0.625
      vertex -0.145362 2.49577 0.625
    endloop
  endfacet
  facet normal -0.396079 0.918216 0
    outer loop
      vertex -1.25 2.16506 -0.625
      vertex -1.25 2.16506 0.625
      vertex -0.717008 2.39497 -0.625
    endloop
  endfacet
  facet normal -0.396079 0.918216 0
    outer loop
      vertex -0.717008 2.39497 -0.625
      vertex -1.25 2.16506 0.625
      vertex -0.717008 2.39497 0.625
    endloop
  endfacet
  facet normal -0.597159 0.802123 0
    outer loop
      vertex -1.7156 1.81843 -0.625
      vertex -1.7156 1.81843 0.625
      vertex -1.25 2.16506 -0.625
    endloop
  endfacet
  facet normal -0.597159 0.802123 0
    outer loop
      vertex -1.25 2.16506 -0.625
      vertex -1.7156 1.81843 0.625
      vertex -1.25 2.16506 0.625
    endloop
  endfacet
  facet normal -0.766044 0.642788 0
    outer loop
      vertex -2.08872 1.37377 -0.625
      vertex -2.08872 1.37377 0.625
      vertex -1.7156 1.81843 -0.625
    endloop
  endfacet
  facet normal -0.766044 0.642788 0
    outer loop
      vertex -1.7156 1.81843 -0.625
      vertex -2.08872 1.37377 0.625
      vertex -1.7156 1.81843 0.625
    endloop
  endfacet
  facet normal -0.893633 0.448799 0
    outer loop
      vertex -2.34923 0.85505 -0.625
      vertex -2.34923 0.85505 0.625
      vertex -2.08872 1.37377 -0.625
    endloop
  endfacet
  facet normal -0.893633 0.448799 0
    outer loop
      vertex -2.08872 1.37377 -0.625
      vertex -2.34923 0.85505 0.625
      vertex -2.08872 1.37377 0.625
    endloop
  endfacet
  facet normal -0.973045 0.230615 0
    outer loop
      vertex -2.4831 0.290232 -0.625
      vertex -2.4831 0.290232 0.625
      vertex -2.34923 0.85505 -0.625
    endloop
  endfacet
  facet normal -0.973045 0.230615 0
    outer loop
      vertex -2.34923 0.85505 -0.625
      vertex -2.4831 0.290232 0.625
      vertex -2.34923 0.85505 0.625
    endloop
  endfacet
  facet normal 1 0 0
    outer loop
      vertex -0.540581 0.26033 -0.625
      vertex -0.540581 0.26033 0.625
      vertex -0.540581 -0.26033 0.625
    endloop
  endfacet
  facet normal 1 0 0
    outer loop
      vertex -0.540581 -0.26033 -0.625
      vertex -0.540581 0.26033 -0.625
      vertex -0.540581 -0.26033 0.625
    endloop
  endfacet
  facet normal 0.623491 -0.78183 0
    outer loop
      vertex -0.133513 0.584957 -0.625
      vertex -0.133513 0.584957 0.625
      vertex -0.540581 0.26033 0.625
    endloop
  endfacet
  facet normal 0.623491 -0.78183 0
    outer loop
      vertex -0.540581 0.26033 -0.625
      vertex -0.133513 0.584957 -0.625
      vertex -0.540581 0.26033 0.625
    endloop
  endfacet
  facet normal -0.222521 -0.974928 0
    outer loop
      vertex 0.374094 0.469099 -0.625
      vertex 0.374094 0.469099 0.625
      vertex -0.133513 0.584957 0.625
    endloop
  endfacet
  facet normal -0.222521 -0.974928 0
    outer loop
      vertex -0.133513 0.584957 -0.625
      vertex 0.374094 0.469099 -0.625
      vertex -0.133513 0.584957 0.625
    endloop
  endfacet
  facet normal -0.900969 -0.433883 0
    outer loop
      vertex 0.6 0 0.625
      vertex 0.374094 0.469099 0.625
      vertex 0.6 0 -0.625
    endloop
  endfacet
  facet normal -0.900969 -0.433883 0
    outer loop
      vertex 0.6 0 -0.625
      vertex 0.374094 0.469099 0.625
      vertex 0.374094 0.469099 -0.625
    endloop
  endfacet
  facet normal -0.900969 0.433883 0
    outer loop
      vertex 0.6 0 0.625
      vertex 0.6 0 -0.625
      vertex 0.374094 -0.469099 0.625
    endloop
  endfacet
  facet normal -0.900969 0.433883 0
    outer loop
      vertex 0.374094 -0.469099 0.625
      vertex 0.6 0 -0.625
      vertex 0.374094 -0.469099 -0.625
    endloop
  endfacet
  facet normal -0.222521 0.974928 0
    outer loop
      vertex 0.374094 -0.469099 0.625
      vertex 0.374094 -0.469099 -0.625
      vertex -0.133513 -0.584957 0.625
    endloop
  endfacet
  facet normal -0.222521 0.974928 0
    outer loop
      vertex -0.133513 -0.584957 0.625
      vertex 0.374094 -0.469099 -0.625
      vertex -0.133513 -0.584957 -0.625
    endloop
  endfacet
  facet normal 0.623491 0.78183 0
    outer loop
      vertex -0.133513 -0.584957 0.625
      vertex -0.133513 -0.584957 -0.625
      vertex -0.540581 -0.26033 0.625
    endloop
  endfacet
  facet normal 0.623491 0.78183 0
    outer loop
      vertex -0.540581 -0.26033 0.625
      vertex -0.133513 -0.584957 -0.625
      vertex -0.540581 -0.26033 -0.625
    endloop
  endfacet
  facet normal 0 0 1
    outer loop
      vertex -2.4831 0.290232 0.625
      vertex -2.4831 -0.290232 0.625
      vertex -2.34923 -0.85505 0.625
    endloop
  endfacet
  facet normal 0 0 1
    outer loop
      vertex -1.7156 -1.81843 0.625
      vertex -2.4831 0.290232 0.625
      vertex -2.08872 -1.37377 0.625
    endloop
  endfacet
  facet normal 0 0 1
    outer loop
      vertex -2.08872 -1.37377 0.625
      vertex -2.4831 0.290232 0.625
      vertex -2.34923 -0.85505 0.625
    endloop
  endfacet
  facet normal 0 0 1
    outer loop
      vertex -1.25 -2.16506 0.625
      vertex -2.4831 0.290232 0.625
      vertex -1.7156 -1.81843 0.625
    endloop
  endfacet
  facet normal 0 0 1
    outer loop
      vertex -0.717008 -2.39497 0.625
      vertex -2.4831 0.290232 0.625
      vertex -1.25 -2.16506 0.625
    endloop
  endfacet
  facet normal 0 0 1
    outer loop
      vertex -0.145362 -2.49577 0.625
      vertex -2.4831 0.290232 0.625
      vertex -0.717008 -2.39497 0.625
    endloop
  endfacet
  facet normal 0 0 1
    outer loop
      vertex 0.43412 -2.46202 0.625
      vertex -2.4831 0.290232 0.625
      vertex -0.145362 -2.49577 0.625
    endloop
  endfacet
  facet normal 0 0 1
    outer loop
      vertex 0.990199 -2.29554 0.625
      vertex -2.4831 0.290232 0.625
      vertex 0.43412 -2.46202 0.625
    endloop
  endfacet
  facet normal 0 0 1
    outer loop
      vertex 1.4929 -2.00531 0.625
      vertex -2.4831 0.290232 0.625
      vertex 0.990199 -2.29554 0.625
    endloop
  endfacet
  facet normal 0 0 1
    outer loop
      vertex 1.91511 -1.60697 0.625
      vertex -2.4831 0.290232 0.625
      vertex 1.4929 -2.00531 0.625
    endloop
  endfacet
  facet normal 0 0 1
    outer loop
      vertex -0.133513 -0.584957 0.625
      vertex -2.4831 0.290232 0.625
      vertex 1.91511 -1.60697 0.625
    endloop
  endfacet
  facet normal 0 0 1
    outer loop
      vertex -0.540581 0.26033 0.625
      vertex -0.133513 0.584957 0.625
      vertex -2.4831 0.290232 0.625
    endloop
  endfacet
  facet normal 0 0 1
    outer loop
      vertex 0.6 0 0.625
      vertex 0.374094 -0.469099 0.625
      vertex 2.43261 -0.57654 0.625
    endloop
  endfacet
  facet normal 0 0 1
    outer loop
      vertex 0.374094 0.469099 0.625
      vertex 2.5 0 0.625
      vertex 2.43261 0.57654 0.625
    endloop
  endfacet
  facet normal 0 0 1
    outer loop
      vertex 1.91511 1.60697 0.625
      vertex -2.4831 0.290232 0.625
      vertex 2.23408 1.122 0.625
    endloop
  endfacet
  facet normal 0 0 1
    outer loop
      vertex 1.4929 2.00531 0.625
      vertex -2.4831 0.290232 0.625
      vertex 1.91511 1.60697 0.625
    endloop
  endfacet
  facet normal 0 0 1
    outer loop
      vertex 0.990199 2.29554 0.625
      vertex -2.4831 0.290232 0.625
      vertex 1.4929 2.00531 0.625
    endloop
  endfacet
  facet normal 0 0 1
    outer loop
      vertex 0.43412 2.46202 0.625
      vertex -2.4831 0.290232 0.625
      vertex 0.990199 2.29554 0.625
    endloop
  endfacet
  facet normal 0 0 1
    outer loop
      vertex -0.145362 2.49577 0.625
      vertex -2.4831 0.290232 0.625
      vertex 0.43412 2.46202 0.625
    endloop
  endfacet
  facet normal 0 0 1
    outer loop
      vertex -0.717008 2.39497 0.625
      vertex -2.4831 0.290232 0.625
      vertex -0.145362 2.49577 0.625
    endloop
  endfacet
  facet normal 0 0 1
    outer loop
      vertex -1.25 2.16506 0.625
      vertex -2.4831 0.290232 0.625
      vertex -0.717008 2.39497 0.625
    endloop
  endfacet
  facet normal 0 0 1
    outer loop
      vertex -1.7156 1.81843 0.625
      vertex -2.4831 0.290232 0.625
      vertex -1.25 2.16506 0.625
    endloop
  endfacet
  facet normal 0 0 1
    outer loop
      vertex -2.08872 1.37377 0.625
      vertex -2.4831 0.290232 0.625
      vertex -1.7156 1.81843 0.625
    endloop
  endfacet
  facet normal 0 0 1
    outer loop
      vertex -2.34923 0.85505 0.625
      vertex -2.4831 0.290232 0.625
      vertex -2.08872 1.37377 0.625
    endloop
  endfacet
  facet normal 0 0 1
    outer loop
      vertex 0.374094 0.469099 0.625
      vertex 0.6 0 0.625
      vertex 2.5 0 0.625
    endloop
  endfacet
  facet normal 0 0 1
    outer loop
      vertex 2.23408 1.122 0.625
      vertex -0.133513 0.584957 0.625
      vertex 2.43261 0.57654 0.625
    endloop
  endfacet
  facet normal 0 0 1
    outer loop
      vertex 2.23408 1.122 0.625
      vertex -2.4831 0.290232 0.625
      vertex -0.133513 0.584957 0.625
    endloop
  endfacet
  facet normal 0 0 1
    outer loop
      vertex -0.133513 0.584957 0.625
      vertex 0.374094 0.469099 0.625
      vertex 2.43261 0.57654 0.625
    endloop
  endfacet
  facet normal 0 0 1
    outer loop
      vertex 2.5 0 0.625
      vertex 0.6 0 0.625
      vertex 2.43261 -0.57654 0.625
    endloop
  endfacet
  facet normal 0 0 1
    outer loop
      vertex 2.43261 -0.57654 0.625
      vertex 0.374094 -0.469099 0.625
      vertex 2.23408 -1.122 0.625
    endloop
  endfacet
  facet normal 0 0 1
    outer loop
      vertex 2.23408 -1.122 0.625
      vertex -0.133513 -0.584957 0.625
      vertex 1.91511 -1.60697 0.625
    endloop
  endfacet
  facet normal 0 0 1
    outer loop
      vertex -0.133513 -0.584957 0.625
      vertex -0.540581 -0.26033 0.625
      vertex -2.4831 0.290232 0.625
    endloop
  endfacet
  facet normal 0 0 1
    outer loop
      vertex 0.374094 -0.469099 0.625
      vertex -0.133513 -0.584957 0.625
      vertex 2.23408 -1.122 0.625
    endloop
  endfacet
  facet normal 0 0 1
    outer loop
      vertex -0.540581 -0.26033 0.625
      vertex -0.540581 0.26033 0.625
      vertex -2.4831 0.290232 0.625
    endloop
  endfacet
endsolid OpenSCAD_Model
