solid OpenSCAD_Model
  facet normal -6.12323e-17 -1 0
    outer loop
      vertex -30 -2.5 -7.5
      vertex -30 -2.5 -12.5
      vertex -18.7372 -2.5 -12.5
    endloop
  endfacet
  facet normal -6.12323e-17 -1 0
    outer loop
      vertex -18.7372 -2.5 -7.5
      vertex -30 -2.5 -7.5
      vertex -18.7372 -2.5 -12.5
    endloop
  endfacet
  facet normal 0 0 -1
    outer loop
      vertex -30 -2.5 -12.5
      vertex -30 2.5 -12.5
      vertex -18.7372 -2.5 -12.5
    endloop
  endfacet
  facet normal 0 0 -1
    outer loop
      vertex -18.7372 -2.5 -12.5
      vertex -30 2.5 -12.5
      vertex -18.7372 2.5 -12.5
    endloop
  endfacet
  facet normal 0 0 -1
    outer loop
      vertex -18.7372 -2.5 -12.5
      vertex -18.7372 2.5 -12.5
      vertex -18.5848 3.95032 -12.5
    endloop
  endfacet
  facet normal 0 0 -1
    outer loop
      vertex -18.7372 -2.5 -12.5
      vertex -18.5848 3.95032 -12.5
      vertex -17.3574 7.728 -12.5
    endloop
  endfacet
  facet normal 0 0 -1
    outer loop
      vertex -18.7372 -2.5 -12.5
      vertex -17.3574 7.728 -12.5
      vertex -15.3713 11.1679 -12.5
    endloop
  endfacet
  facet normal 0 0 -1
    outer loop
      vertex -18.7372 -2.5 -12.5
      vertex -15.3713 11.1679 -12.5
      vertex -12.7135 14.1198 -12.5
    endloop
  endfacet
  facet normal 0 0 -1
    outer loop
      vertex -18.7372 -2.5 -12.5
      vertex -12.7135 14.1198 -12.5
      vertex -9.5 16.4545 -12.5
    endloop
  endfacet
  facet normal 0 0 -1
    outer loop
      vertex -18.7372 -2.5 -12.5
      vertex -9.5 16.4545 -12.5
      vertex -5.87132 18.0701 -12.5
    endloop
  endfacet
  facet normal 0 0 -1
    outer loop
      vertex -9.36783 10.404 -12.5
      vertex -5.87132 18.0701 -12.5
      vertex -2.5 18.7867 -12.5
    endloop
  endfacet
  facet normal 0 0 -1
    outer loop
      vertex -2.5 18.7867 -12.5
      vertex -2.5 30 -12.5
      vertex 2.5 30 -12.5
    endloop
  endfacet
  facet normal 0 0 -1
    outer loop
      vertex -2.5 18.7867 -12.5
      vertex 2.5 30 -12.5
      vertex 2.5 18.7867 -12.5
    endloop
  endfacet
  facet normal 0 0 -1
    outer loop
      vertex -2.5 13.703 -12.5
      vertex 2.5 18.7867 -12.5
      vertex 5.87132 18.0701 -12.5
    endloop
  endfacet
  facet normal 0 0 -1
    outer loop
      vertex 2.5 13.703 -12.5
      vertex 5.87132 18.0701 -12.5
      vertex 9.5 16.4545 -12.5
    endloop
  endfacet
  facet normal 0 0 -1
    outer loop
      vertex 7 12.1244 -12.5
      vertex 9.5 16.4545 -12.5
      vertex 12.7135 14.1198 -12.5
    endloop
  endfacet
  facet normal 0 0 -1
    outer loop
      vertex 9.36783 10.404 -12.5
      vertex 12.7135 14.1198 -12.5
      vertex 15.3713 11.1679 -12.5
    endloop
  endfacet
  facet normal 0 0 -1
    outer loop
      vertex 11.3262 8.22899 -12.5
      vertex 15.3713 11.1679 -12.5
      vertex 17.3574 7.728 -12.5
    endloop
  endfacet
  facet normal 0 0 -1
    outer loop
      vertex 12.7896 5.69431 -12.5
      vertex 17.3574 7.728 -12.5
      vertex 18.5848 3.95032 -12.5
    endloop
  endfacet
  facet normal 0 0 -1
    outer loop
      vertex 13.7372 2.5 -12.5
      vertex 18.5848 3.95032 -12.5
      vertex 18.7372 2.5 -12.5
    endloop
  endfacet
  facet normal 0 0 -1
    outer loop
      vertex -18.7372 -2.5 -12.5
      vertex 18.7372 2.5 -12.5
      vertex 30 2.5 -12.5
    endloop
  endfacet
  facet normal 0 0 -1
    outer loop
      vertex 18.7372 -2.5 -12.5
      vertex 30 2.5 -12.5
      vertex 30 -2.5 -12.5
    endloop
  endfacet
  facet normal 0 0 -1
    outer loop
      vertex -18.7372 -2.5 -12.5
      vertex 30 2.5 -12.5
      vertex -13.7372 -2.5 -12.5
    endloop
  endfacet
  facet normal 0 0 -1
    outer loop
      vertex -12.7896 -5.69431 -12.5
      vertex -18.7372 -2.5 -12.5
      vertex -13.6941 -2.91076 -12.5
    endloop
  endfacet
  facet normal 0 0 -1
    outer loop
      vertex 2.5 -13.703 -12.5
      vertex -2.5 -2.5 -12.5
      vertex 2.5 -2.5 -12.5
    endloop
  endfacet
  facet normal 0 0 -1
    outer loop
      vertex 12.7896 -5.69431 -12.5
      vertex 17.3574 -7.728 -12.5
      vertex 11.3262 -8.22899 -12.5
    endloop
  endfacet
  facet normal 0 0 -1
    outer loop
      vertex -17.3574 -7.728 -12.5
      vertex -2.5 -18.7867 -12.5
      vertex -15.3713 -11.1679 -12.5
    endloop
  endfacet
  facet normal 0 0 -1
    outer loop
      vertex 2.5 -18.7867 -12.5
      vertex 2.5 -30 -12.5
      vertex -2.5 -18.7867 -12.5
    endloop
  endfacet
  facet normal 0 0 -1
    outer loop
      vertex -15.3713 -11.1679 -12.5
      vertex -5.87132 -18.0701 -12.5
      vertex -12.7135 -14.1198 -12.5
    endloop
  endfacet
  facet normal 0 0 -1
    outer loop
      vertex -17.3574 -7.728 -12.5
      vertex 5.87132 -18.0701 -12.5
      vertex 2.5 -18.7867 -12.5
    endloop
  endfacet
  facet normal 0 0 -1
    outer loop
      vertex -5.87132 -18.0701 -12.5
      vertex -9.5 -16.4545 -12.5
      vertex -12.7135 -14.1198 -12.5
    endloop
  endfacet
  facet normal 0 0 -1
    outer loop
      vertex -17.3574 -7.728 -12.5
      vertex 2.5 -18.7867 -12.5
      vertex -2.5 -18.7867 -12.5
    endloop
  endfacet
  facet normal 0 0 -1
    outer loop
      vertex -2.5 -18.7867 -12.5
      vertex -5.87132 -18.0701 -12.5
      vertex -15.3713 -11.1679 -12.5
    endloop
  endfacet
  facet normal 0 0 -1
    outer loop
      vertex -7 -12.1244 -12.5
      vertex 5.87132 -18.0701 -12.5
      vertex -17.3574 -7.728 -12.5
    endloop
  endfacet
  facet normal 0 0 -1
    outer loop
      vertex 4.32624 -13.3148 -12.5
      vertex 9.5 -16.4545 -12.5
      vertex 2.5 -13.703 -12.5
    endloop
  endfacet
  facet normal 0 0 -1
    outer loop
      vertex -9.36783 -10.404 -12.5
      vertex -17.3574 -7.728 -12.5
      vertex -11.3262 -8.22899 -12.5
    endloop
  endfacet
  facet normal 0 0 -1
    outer loop
      vertex -13.6941 2.91076 -12.5
      vertex -18.7372 -2.5 -12.5
      vertex -12.7896 5.69431 -12.5
    endloop
  endfacet
  facet normal 0 0 -1
    outer loop
      vertex -2.5 -2.5 -12.5
      vertex -13.7372 -2.5 -12.5
      vertex 30 2.5 -12.5
    endloop
  endfacet
  facet normal 0 0 -1
    outer loop
      vertex -12.7896 -5.69431 -12.5
      vertex -18.5848 -3.95032 -12.5
      vertex -18.7372 -2.5 -12.5
    endloop
  endfacet
  facet normal 0 0 -1
    outer loop
      vertex -2.5 -18.7867 -12.5
      vertex 2.5 -30 -12.5
      vertex -2.5 -30 -12.5
    endloop
  endfacet
  facet normal 0 0 -1
    outer loop
      vertex -11.3262 -8.22899 -12.5
      vertex -18.5848 -3.95032 -12.5
      vertex -12.7896 -5.69431 -12.5
    endloop
  endfacet
  facet normal 0 0 -1
    outer loop
      vertex -13.6941 -2.91076 -12.5
      vertex -18.7372 -2.5 -12.5
      vertex -13.7372 -2.5 -12.5
    endloop
  endfacet
  facet normal 0 0 -1
    outer loop
      vertex -2.5 -13.703 -12.5
      vertex 5.87132 -18.0701 -12.5
      vertex -4.32624 -13.3148 -12.5
    endloop
  endfacet
  facet normal 0 0 -1
    outer loop
      vertex -4.32624 -13.3148 -12.5
      vertex 5.87132 -18.0701 -12.5
      vertex -7 -12.1244 -12.5
    endloop
  endfacet
  facet normal 0 0 -1
    outer loop
      vertex -9.36783 -10.404 -12.5
      vertex -7 -12.1244 -12.5
      vertex -17.3574 -7.728 -12.5
    endloop
  endfacet
  facet normal 0 0 -1
    outer loop
      vertex 9.5 -16.4545 -12.5
      vertex 5.87132 -18.0701 -12.5
      vertex -2.5 -13.703 -12.5
    endloop
  endfacet
  facet normal 0 0 -1
    outer loop
      vertex 2.5 -2.5 -12.5
      vertex -2.5 -2.5 -12.5
      vertex 30 2.5 -12.5
    endloop
  endfacet
  facet normal 0 0 -1
    outer loop
      vertex -9.36783 10.404 -12.5
      vertex -2.5 18.7867 -12.5
      vertex -7 12.1244 -12.5
    endloop
  endfacet
  facet normal 0 0 -1
    outer loop
      vertex -13.7372 2.5 -12.5
      vertex -18.7372 -2.5 -12.5
      vertex -13.6941 2.91076 -12.5
    endloop
  endfacet
  facet normal 0 0 -1
    outer loop
      vertex -2.5 2.5 -12.5
      vertex -18.7372 -2.5 -12.5
      vertex -13.7372 2.5 -12.5
    endloop
  endfacet
  facet normal 0 0 -1
    outer loop
      vertex -2.5 13.703 -12.5
      vertex 5.87132 18.0701 -12.5
      vertex 2.5 13.703 -12.5
    endloop
  endfacet
  facet normal 0 0 -1
    outer loop
      vertex -4.32624 13.3148 -12.5
      vertex 2.5 18.7867 -12.5
      vertex -2.5 13.703 -12.5
    endloop
  endfacet
  facet normal 0 0 -1
    outer loop
      vertex -2.5 18.7867 -12.5
      vertex 2.5 18.7867 -12.5
      vertex -4.32624 13.3148 -12.5
    endloop
  endfacet
  facet normal 0 0 -1
    outer loop
      vertex -2.5 18.7867 -12.5
      vertex -4.32624 13.3148 -12.5
      vertex -7 12.1244 -12.5
    endloop
  endfacet
  facet normal 0 0 -1
    outer loop
      vertex 13.6941 -2.91076 -12.5
      vertex 18.5848 -3.95032 -12.5
      vertex 12.7896 -5.69431 -12.5
    endloop
  endfacet
  facet normal 0 0 -1
    outer loop
      vertex -11.3262 8.22899 -12.5
      vertex -5.87132 18.0701 -12.5
      vertex -9.36783 10.404 -12.5
    endloop
  endfacet
  facet normal 0 0 -1
    outer loop
      vertex -18.7372 -2.5 -12.5
      vertex -5.87132 18.0701 -12.5
      vertex -11.3262 8.22899 -12.5
    endloop
  endfacet
  facet normal 0 0 -1
    outer loop
      vertex -18.7372 -2.5 -12.5
      vertex -11.3262 8.22899 -12.5
      vertex -12.7896 5.69431 -12.5
    endloop
  endfacet
  facet normal 0 0 -1
    outer loop
      vertex 2.5 2.5 -12.5
      vertex -18.7372 -2.5 -12.5
      vertex -2.5 2.5 -12.5
    endloop
  endfacet
  facet normal 0 0 -1
    outer loop
      vertex 13.7372 -2.5 -12.5
      vertex 2.5 -2.5 -12.5
      vertex 30 2.5 -12.5
    endloop
  endfacet
  facet normal 0 0 -1
    outer loop
      vertex 7 -12.1244 -12.5
      vertex 12.7135 -14.1198 -12.5
      vertex 4.32624 -13.3148 -12.5
    endloop
  endfacet
  facet normal 0 0 -1
    outer loop
      vertex 12.7135 -14.1198 -12.5
      vertex 9.5 -16.4545 -12.5
      vertex 4.32624 -13.3148 -12.5
    endloop
  endfacet
  facet normal 0 0 -1
    outer loop
      vertex 15.3713 -11.1679 -12.5
      vertex 12.7135 -14.1198 -12.5
      vertex 7 -12.1244 -12.5
    endloop
  endfacet
  facet normal 0 0 -1
    outer loop
      vertex 15.3713 -11.1679 -12.5
      vertex 7 -12.1244 -12.5
      vertex 9.36783 -10.404 -12.5
    endloop
  endfacet
  facet normal 0 0 -1
    outer loop
      vertex 4.32624 13.3148 -12.5
      vertex 9.5 16.4545 -12.5
      vertex 7 12.1244 -12.5
    endloop
  endfacet
  facet normal 0 0 -1
    outer loop
      vertex 17.3574 -7.728 -12.5
      vertex 15.3713 -11.1679 -12.5
      vertex 11.3262 -8.22899 -12.5
    endloop
  endfacet
  facet normal 0 0 -1
    outer loop
      vertex 18.5848 -3.95032 -12.5
      vertex 17.3574 -7.728 -12.5
      vertex 12.7896 -5.69431 -12.5
    endloop
  endfacet
  facet normal 0 0 -1
    outer loop
      vertex 18.7372 -2.5 -12.5
      vertex 18.5848 -3.95032 -12.5
      vertex 13.6941 -2.91076 -12.5
    endloop
  endfacet
  facet normal 0 0 -1
    outer loop
      vertex 18.7372 -2.5 -12.5
      vertex 13.6941 -2.91076 -12.5
      vertex 13.7372 -2.5 -12.5
    endloop
  endfacet
  facet normal 0 0 -1
    outer loop
      vertex 18.7372 -2.5 -12.5
      vertex 13.7372 -2.5 -12.5
      vertex 30 2.5 -12.5
    endloop
  endfacet
  facet normal 0 0 -1
    outer loop
      vertex 4.32624 13.3148 -12.5
      vertex 2.5 13.703 -12.5
      vertex 9.5 16.4545 -12.5
    endloop
  endfacet
  facet normal 0 0 -1
    outer loop
      vertex 13.7372 2.5 -12.5
      vertex -18.7372 -2.5 -12.5
      vertex 2.5 2.5 -12.5
    endloop
  endfacet
  facet normal 0 0 -1
    outer loop
      vertex 13.6941 2.91076 -12.5
      vertex 18.5848 3.95032 -12.5
      vertex 13.7372 2.5 -12.5
    endloop
  endfacet
  facet normal 0 0 -1
    outer loop
      vertex -18.7372 -2.5 -12.5
      vertex 13.7372 2.5 -12.5
      vertex 18.7372 2.5 -12.5
    endloop
  endfacet
  facet normal 0 0 -1
    outer loop
      vertex 12.7896 5.69431 -12.5
      vertex 18.5848 3.95032 -12.5
      vertex 13.6941 2.91076 -12.5
    endloop
  endfacet
  facet normal 0 0 -1
    outer loop
      vertex 11.3262 8.22899 -12.5
      vertex 17.3574 7.728 -12.5
      vertex 12.7896 5.69431 -12.5
    endloop
  endfacet
  facet normal 0 0 -1
    outer loop
      vertex 7 12.1244 -12.5
      vertex 12.7135 14.1198 -12.5
      vertex 9.36783 10.404 -12.5
    endloop
  endfacet
  facet normal 0 0 -1
    outer loop
      vertex 2.5 2.5 -12.5
      vertex -2.5 2.5 -12.5
      vertex -2.5 13.703 -12.5
    endloop
  endfacet
  facet normal 0 0 -1
    outer loop
      vertex 2.5 2.5 -12.5
      vertex -2.5 13.703 -12.5
      vertex 2.5 13.703 -12.5
    endloop
  endfacet
  facet normal 0 0 -1
    outer loop
      vertex 9.36783 10.404 -12.5
      vertex 15.3713 11.1679 -12.5
      vertex 11.3262 8.22899 -12.5
    endloop
  endfacet
  facet normal 0 0 -1
    outer loop
      vertex -18.5848 -3.95032 -12.5
      vertex -11.3262 -8.22899 -12.5
      vertex -17.3574 -7.728 -12.5
    endloop
  endfacet
  facet normal 0 0 -1
    outer loop
      vertex 11.3262 -8.22899 -12.5
      vertex 15.3713 -11.1679 -12.5
      vertex 9.36783 -10.404 -12.5
    endloop
  endfacet
  facet normal 0 0 -1
    outer loop
      vertex 2.5 -13.703 -12.5
      vertex 9.5 -16.4545 -12.5
      vertex -2.5 -13.703 -12.5
    endloop
  endfacet
  facet normal 0 0 -1
    outer loop
      vertex -2.5 -2.5 -12.5
      vertex 2.5 -13.703 -12.5
      vertex -2.5 -13.703 -12.5
    endloop
  endfacet
  facet normal -1 6.12323e-17 0
    outer loop
      vertex -30 -2.5 -12.5
      vertex -30 -2.5 -7.5
      vertex -30 2.5 -12.5
    endloop
  endfacet
  facet normal -1 6.12323e-17 0
    outer loop
      vertex -30 2.5 -12.5
      vertex -30 -2.5 -7.5
      vertex -30 2.5 -7.5
    endloop
  endfacet
  facet normal 0 0 1
    outer loop
      vertex -30 2.5 -7.5
      vertex -30 -2.5 -7.5
      vertex -18.7372 -2.5 -7.5
    endloop
  endfacet
  facet normal 0 0 1
    outer loop
      vertex -18.7372 2.5 -7.5
      vertex -30 2.5 -7.5
      vertex -19 0 -7.5
    endloop
  endfacet
  facet normal 0 0 1
    outer loop
      vertex -19 0 -7.5
      vertex -30 2.5 -7.5
      vertex -18.7372 -2.5 -7.5
    endloop
  endfacet
  facet normal -0.994522 -0.104529 0
    outer loop
      vertex -19 0 -7.5
      vertex -18.7372 -2.5 -7.5
      vertex -19 0 12.5
    endloop
  endfacet
  facet normal -0.994522 -0.104529 0
    outer loop
      vertex -18.5848 -3.95032 -12.5
      vertex -18.7372 -2.5 -7.5
      vertex -18.7372 -2.5 -12.5
    endloop
  endfacet
  facet normal -0.994522 -0.104529 0
    outer loop
      vertex -19 0 12.5
      vertex -18.7372 -2.5 -7.5
      vertex -18.5848 -3.95032 -12.5
    endloop
  endfacet
  facet normal -0.994522 -0.104529 0
    outer loop
      vertex -19 0 12.5
      vertex -18.5848 -3.95032 -12.5
      vertex -18.5848 -3.95032 12.5
    endloop
  endfacet
  facet normal -0.951057 -0.309017 0
    outer loop
      vertex -18.5848 -3.95032 -12.5
      vertex -17.3574 -7.728 -12.5
      vertex -18.5848 -3.95032 12.5
    endloop
  endfacet
  facet normal -0.951057 -0.309017 0
    outer loop
      vertex -18.5848 -3.95032 12.5
      vertex -17.3574 -7.728 -12.5
      vertex -17.3574 -7.728 12.5
    endloop
  endfacet
  facet normal -0.866025 -0.5 0
    outer loop
      vertex -17.3574 -7.728 -12.5
      vertex -15.3713 -11.1679 -12.5
      vertex -17.3574 -7.728 12.5
    endloop
  endfacet
  facet normal -0.866025 -0.5 0
    outer loop
      vertex -17.3574 -7.728 12.5
      vertex -15.3713 -11.1679 -12.5
      vertex -15.3713 -11.1679 12.5
    endloop
  endfacet
  facet normal -0.743145 -0.669131 0
    outer loop
      vertex -15.3713 -11.1679 -12.5
      vertex -12.7135 -14.1198 -12.5
      vertex -15.3713 -11.1679 12.5
    endloop
  endfacet
  facet normal -0.743145 -0.669131 0
    outer loop
      vertex -15.3713 -11.1679 12.5
      vertex -12.7135 -14.1198 -12.5
      vertex -12.7135 -14.1198 12.5
    endloop
  endfacet
  facet normal -0.587785 -0.809017 0
    outer loop
      vertex -12.7135 -14.1198 12.5
      vertex -12.7135 -14.1198 -12.5
      vertex -9.5 -16.4545 -12.5
    endloop
  endfacet
  facet normal -0.587785 -0.809017 0
    outer loop
      vertex -9.5 -16.4545 12.5
      vertex -12.7135 -14.1198 12.5
      vertex -9.5 -16.4545 -12.5
    endloop
  endfacet
  facet normal -0.406737 -0.913545 0
    outer loop
      vertex -9.5 -16.4545 12.5
      vertex -9.5 -16.4545 -12.5
      vertex -5.87132 -18.0701 -12.5
    endloop
  endfacet
  facet normal -0.406737 -0.913545 0
    outer loop
      vertex -5.87132 -18.0701 12.5
      vertex -9.5 -16.4545 12.5
      vertex -5.87132 -18.0701 -12.5
    endloop
  endfacet
  facet normal -0.207912 -0.978148 0
    outer loop
      vertex -5.87132 -18.0701 12.5
      vertex -5.87132 -18.0701 -12.5
      vertex -2.5 -18.7867 -12.5
    endloop
  endfacet
  facet normal -0.207912 -0.978148 0
    outer loop
      vertex -1.98604 -18.8959 -7.5
      vertex -5.87132 -18.0701 12.5
      vertex -2.5 -18.7867 -7.5
    endloop
  endfacet
  facet normal -0.207912 -0.978148 0
    outer loop
      vertex -2.5 -18.7867 -7.5
      vertex -5.87132 -18.0701 12.5
      vertex -2.5 -18.7867 -12.5
    endloop
  endfacet
  facet normal -0.207912 -0.978148 0
    outer loop
      vertex -1.98604 -18.8959 12.5
      vertex -5.87132 -18.0701 12.5
      vertex -1.98604 -18.8959 -7.5
    endloop
  endfacet
  facet normal -1 0 0
    outer loop
      vertex -2.5 -30 -12.5
      vertex -2.5 -30 -7.5
      vertex -2.5 -18.7867 -12.5
    endloop
  endfacet
  facet normal -1 0 0
    outer loop
      vertex -2.5 -18.7867 -12.5
      vertex -2.5 -30 -7.5
      vertex -2.5 -18.7867 -7.5
    endloop
  endfacet
  facet normal 0 -1 0
    outer loop
      vertex -2.5 -30 -7.5
      vertex -2.5 -30 -12.5
      vertex 2.5 -30 -12.5
    endloop
  endfacet
  facet normal 0 -1 0
    outer loop
      vertex 2.5 -30 -7.5
      vertex -2.5 -30 -7.5
      vertex 2.5 -30 -12.5
    endloop
  endfacet
  facet normal 1 0 0
    outer loop
      vertex 2.5 -30 -7.5
      vertex 2.5 -30 -12.5
      vertex 2.5 -18.7867 -12.5
    endloop
  endfacet
  facet normal 1 0 0
    outer loop
      vertex 2.5 -18.7867 -7.5
      vertex 2.5 -30 -7.5
      vertex 2.5 -18.7867 -12.5
    endloop
  endfacet
  facet normal 0.207912 -0.978148 0
    outer loop
      vertex 1.98604 -18.8959 12.5
      vertex 1.98604 -18.8959 -7.5
      vertex 2.5 -18.7867 -7.5
    endloop
  endfacet
  facet normal 0.207912 -0.978148 0
    outer loop
      vertex 5.87132 -18.0701 -12.5
      vertex 1.98604 -18.8959 12.5
      vertex 2.5 -18.7867 -7.5
    endloop
  endfacet
  facet normal 0.207912 -0.978148 0
    outer loop
      vertex 2.5 -18.7867 -12.5
      vertex 5.87132 -18.0701 -12.5
      vertex 2.5 -18.7867 -7.5
    endloop
  endfacet
  facet normal 0.207912 -0.978148 0
    outer loop
      vertex 5.87132 -18.0701 -12.5
      vertex 5.87132 -18.0701 12.5
      vertex 1.98604 -18.8959 12.5
    endloop
  endfacet
  facet normal 0.406737 -0.913545 0
    outer loop
      vertex 5.87132 -18.0701 12.5
      vertex 5.87132 -18.0701 -12.5
      vertex 9.5 -16.4545 -12.5
    endloop
  endfacet
  facet normal 0.406737 -0.913545 0
    outer loop
      vertex 9.5 -16.4545 12.5
      vertex 5.87132 -18.0701 12.5
      vertex 9.5 -16.4545 -12.5
    endloop
  endfacet
  facet normal 0.587785 -0.809017 0
    outer loop
      vertex 9.5 -16.4545 12.5
      vertex 9.5 -16.4545 -12.5
      vertex 12.7135 -14.1198 -12.5
    endloop
  endfacet
  facet normal 0.587785 -0.809017 0
    outer loop
      vertex 12.7135 -14.1198 12.5
      vertex 9.5 -16.4545 12.5
      vertex 12.7135 -14.1198 -12.5
    endloop
  endfacet
  facet normal 0.743145 -0.669131 0
    outer loop
      vertex 12.7135 -14.1198 12.5
      vertex 12.7135 -14.1198 -12.5
      vertex 15.3713 -11.1679 -12.5
    endloop
  endfacet
  facet normal 0.743145 -0.669131 0
    outer loop
      vertex 15.3713 -11.1679 12.5
      vertex 12.7135 -14.1198 12.5
      vertex 15.3713 -11.1679 -12.5
    endloop
  endfacet
  facet normal 0.866025 -0.5 0
    outer loop
      vertex 15.3713 -11.1679 12.5
      vertex 15.3713 -11.1679 -12.5
      vertex 17.3574 -7.728 -12.5
    endloop
  endfacet
  facet normal 0.866025 -0.5 0
    outer loop
      vertex 17.3574 -7.728 12.5
      vertex 15.3713 -11.1679 12.5
      vertex 17.3574 -7.728 -12.5
    endloop
  endfacet
  facet normal 0.951057 -0.309017 0
    outer loop
      vertex 17.3574 -7.728 12.5
      vertex 17.3574 -7.728 -12.5
      vertex 18.5848 -3.95032 -12.5
    endloop
  endfacet
  facet normal 0.951057 -0.309017 0
    outer loop
      vertex 18.5848 -3.95032 12.5
      vertex 17.3574 -7.728 12.5
      vertex 18.5848 -3.95032 -12.5
    endloop
  endfacet
  facet normal 0.994522 -0.104529 0
    outer loop
      vertex 18.5848 -3.95032 12.5
      vertex 18.5848 -3.95032 -12.5
      vertex 18.7372 -2.5 -12.5
    endloop
  endfacet
  facet normal 0.994522 -0.104529 0
    outer loop
      vertex 19 0 -7.5
      vertex 18.5848 -3.95032 12.5
      vertex 18.7372 -2.5 -7.5
    endloop
  endfacet
  facet normal 0.994522 -0.104529 0
    outer loop
      vertex 18.7372 -2.5 -7.5
      vertex 18.5848 -3.95032 12.5
      vertex 18.7372 -2.5 -12.5
    endloop
  endfacet
  facet normal 0.994522 -0.104529 0
    outer loop
      vertex 19 0 12.5
      vertex 18.5848 -3.95032 12.5
      vertex 19 0 -7.5
    endloop
  endfacet
  facet normal -6.12323e-17 -1 0
    outer loop
      vertex 18.7372 -2.5 -7.5
      vertex 18.7372 -2.5 -12.5
      vertex 30 -2.5 -12.5
    endloop
  endfacet
  facet normal -6.12323e-17 -1 0
    outer loop
      vertex 30 -2.5 -7.5
      vertex 18.7372 -2.5 -7.5
      vertex 30 -2.5 -12.5
    endloop
  endfacet
  facet normal 1 -6.12323e-17 0
    outer loop
      vertex 30 -2.5 -7.5
      vertex 30 -2.5 -12.5
      vertex 30 2.5 -12.5
    endloop
  endfacet
  facet normal 1 -6.12323e-17 0
    outer loop
      vertex 30 2.5 -7.5
      vertex 30 -2.5 -7.5
      vertex 30 2.5 -12.5
    endloop
  endfacet
  facet normal 6.12323e-17 1 0
    outer loop
      vertex 18.7372 2.5 -12.5
      vertex 18.7372 2.5 -7.5
      vertex 30 2.5 -12.5
    endloop
  endfacet
  facet normal 6.12323e-17 1 0
    outer loop
      vertex 30 2.5 -12.5
      vertex 18.7372 2.5 -7.5
      vertex 30 2.5 -7.5
    endloop
  endfacet
  facet normal 0.994522 0.104529 0
    outer loop
      vertex 18.7372 2.5 -12.5
      vertex 18.5848 3.95032 -12.5
      vertex 18.5848 3.95032 12.5
    endloop
  endfacet
  facet normal 0.994522 0.104529 0
    outer loop
      vertex 18.7372 2.5 -7.5
      vertex 18.7372 2.5 -12.5
      vertex 18.5848 3.95032 12.5
    endloop
  endfacet
  facet normal 0.994522 0.104529 0
    outer loop
      vertex 19 0 12.5
      vertex 18.7372 2.5 -7.5
      vertex 18.5848 3.95032 12.5
    endloop
  endfacet
  facet normal 0.994522 0.104529 0
    outer loop
      vertex 19 0 -7.5
      vertex 18.7372 2.5 -7.5
      vertex 19 0 12.5
    endloop
  endfacet
  facet normal 0.951057 0.309017 0
    outer loop
      vertex 18.5848 3.95032 -12.5
      vertex 17.3574 7.728 -12.5
      vertex 17.3574 7.728 12.5
    endloop
  endfacet
  facet normal 0.951057 0.309017 0
    outer loop
      vertex 18.5848 3.95032 12.5
      vertex 18.5848 3.95032 -12.5
      vertex 17.3574 7.728 12.5
    endloop
  endfacet
  facet normal 0.866025 0.5 0
    outer loop
      vertex 17.3574 7.728 -12.5
      vertex 15.3713 11.1679 -12.5
      vertex 15.3713 11.1679 12.5
    endloop
  endfacet
  facet normal 0.866025 0.5 0
    outer loop
      vertex 17.3574 7.728 12.5
      vertex 17.3574 7.728 -12.5
      vertex 15.3713 11.1679 12.5
    endloop
  endfacet
  facet normal 0.743145 0.669131 0
    outer loop
      vertex 15.3713 11.1679 -12.5
      vertex 12.7135 14.1198 -12.5
      vertex 12.7135 14.1198 12.5
    endloop
  endfacet
  facet normal 0.743145 0.669131 0
    outer loop
      vertex 15.3713 11.1679 12.5
      vertex 15.3713 11.1679 -12.5
      vertex 12.7135 14.1198 12.5
    endloop
  endfacet
  facet normal 0.587785 0.809017 0
    outer loop
      vertex 9.5 16.4545 -12.5
      vertex 9.5 16.4545 12.5
      vertex 12.7135 14.1198 -12.5
    endloop
  endfacet
  facet normal 0.587785 0.809017 0
    outer loop
      vertex 12.7135 14.1198 -12.5
      vertex 9.5 16.4545 12.5
      vertex 12.7135 14.1198 12.5
    endloop
  endfacet
  facet normal 0.406737 0.913545 0
    outer loop
      vertex 5.87132 18.0701 -12.5
      vertex 5.87132 18.0701 12.5
      vertex 9.5 16.4545 -12.5
    endloop
  endfacet
  facet normal 0.406737 0.913545 0
    outer loop
      vertex 9.5 16.4545 -12.5
      vertex 5.87132 18.0701 12.5
      vertex 9.5 16.4545 12.5
    endloop
  endfacet
  facet normal 0.207912 0.978148 0
    outer loop
      vertex 1.98604 18.8959 -7.5
      vertex 1.98604 18.8959 12.5
      vertex 2.5 18.7867 -7.5
    endloop
  endfacet
  facet normal 0.207912 0.978148 0
    outer loop
      vertex 2.5 18.7867 -7.5
      vertex 1.98604 18.8959 12.5
      vertex 5.87132 18.0701 12.5
    endloop
  endfacet
  facet normal 0.207912 0.978148 0
    outer loop
      vertex 2.5 18.7867 -7.5
      vertex 5.87132 18.0701 12.5
      vertex 5.87132 18.0701 -12.5
    endloop
  endfacet
  facet normal 0.207912 0.978148 0
    outer loop
      vertex 2.5 18.7867 -7.5
      vertex 5.87132 18.0701 -12.5
      vertex 2.5 18.7867 -12.5
    endloop
  endfacet
  facet normal 1 0 0
    outer loop
      vertex 2.5 18.7867 -7.5
      vertex 2.5 18.7867 -12.5
      vertex 2.5 30 -12.5
    endloop
  endfacet
  facet normal 1 0 0
    outer loop
      vertex 2.5 30 -7.5
      vertex 2.5 18.7867 -7.5
      vertex 2.5 30 -12.5
    endloop
  endfacet
  facet normal 0 1 0
    outer loop
      vertex -2.5 30 -12.5
      vertex -2.5 30 -7.5
      vertex 2.5 30 -12.5
    endloop
  endfacet
  facet normal 0 1 0
    outer loop
      vertex 2.5 30 -12.5
      vertex -2.5 30 -7.5
      vertex 2.5 30 -7.5
    endloop
  endfacet
  facet normal -1 0 0
    outer loop
      vertex -2.5 18.7867 -12.5
      vertex -2.5 18.7867 -7.5
      vertex -2.5 30 -12.5
    endloop
  endfacet
  facet normal -1 0 0
    outer loop
      vertex -2.5 30 -12.5
      vertex -2.5 18.7867 -7.5
      vertex -2.5 30 -7.5
    endloop
  endfacet
  facet normal -0.207912 0.978148 0
    outer loop
      vertex -5.87132 18.0701 -12.5
      vertex -5.87132 18.0701 12.5
      vertex -2.5 18.7867 -12.5
    endloop
  endfacet
  facet normal -0.207912 0.978148 0
    outer loop
      vertex -2.5 18.7867 -7.5
      vertex -5.87132 18.0701 12.5
      vertex -1.98604 18.8959 12.5
    endloop
  endfacet
  facet normal -0.207912 0.978148 0
    outer loop
      vertex -2.5 18.7867 -12.5
      vertex -5.87132 18.0701 12.5
      vertex -2.5 18.7867 -7.5
    endloop
  endfacet
  facet normal -0.207912 0.978148 0
    outer loop
      vertex -2.5 18.7867 -7.5
      vertex -1.98604 18.8959 12.5
      vertex -1.98604 18.8959 -7.5
    endloop
  endfacet
  facet normal -0.406737 0.913545 0
    outer loop
      vertex -9.5 16.4545 -12.5
      vertex -9.5 16.4545 12.5
      vertex -5.87132 18.0701 -12.5
    endloop
  endfacet
  facet normal -0.406737 0.913545 0
    outer loop
      vertex -5.87132 18.0701 -12.5
      vertex -9.5 16.4545 12.5
      vertex -5.87132 18.0701 12.5
    endloop
  endfacet
  facet normal -0.587785 0.809017 0
    outer loop
      vertex -12.7135 14.1198 -12.5
      vertex -12.7135 14.1198 12.5
      vertex -9.5 16.4545 -12.5
    endloop
  endfacet
  facet normal -0.587785 0.809017 0
    outer loop
      vertex -9.5 16.4545 -12.5
      vertex -12.7135 14.1198 12.5
      vertex -9.5 16.4545 12.5
    endloop
  endfacet
  facet normal -0.743145 0.669131 0
    outer loop
      vertex -15.3713 11.1679 -12.5
      vertex -15.3713 11.1679 12.5
      vertex -12.7135 14.1198 -12.5
    endloop
  endfacet
  facet normal -0.743145 0.669131 0
    outer loop
      vertex -12.7135 14.1198 -12.5
      vertex -15.3713 11.1679 12.5
      vertex -12.7135 14.1198 12.5
    endloop
  endfacet
  facet normal -0.866025 0.5 0
    outer loop
      vertex -17.3574 7.728 -12.5
      vertex -17.3574 7.728 12.5
      vertex -15.3713 11.1679 -12.5
    endloop
  endfacet
  facet normal -0.866025 0.5 0
    outer loop
      vertex -15.3713 11.1679 -12.5
      vertex -17.3574 7.728 12.5
      vertex -15.3713 11.1679 12.5
    endloop
  endfacet
  facet normal -0.951057 0.309017 0
    outer loop
      vertex -18.5848 3.95032 -12.5
      vertex -18.5848 3.95032 12.5
      vertex -17.3574 7.728 -12.5
    endloop
  endfacet
  facet normal -0.951057 0.309017 0
    outer loop
      vertex -17.3574 7.728 -12.5
      vertex -18.5848 3.95032 12.5
      vertex -17.3574 7.728 12.5
    endloop
  endfacet
  facet normal -0.994522 0.104529 0
    outer loop
      vertex -19 0 -7.5
      vertex -19 0 12.5
      vertex -18.7372 2.5 -7.5
    endloop
  endfacet
  facet normal -0.994522 0.104529 0
    outer loop
      vertex -18.7372 2.5 -7.5
      vertex -19 0 12.5
      vertex -18.5848 3.95032 12.5
    endloop
  endfacet
  facet normal -0.994522 0.104529 0
    outer loop
      vertex -18.7372 2.5 -7.5
      vertex -18.5848 3.95032 12.5
      vertex -18.5848 3.95032 -12.5
    endloop
  endfacet
  facet normal -0.994522 0.104529 0
    outer loop
      vertex -18.7372 2.5 -7.5
      vertex -18.5848 3.95032 -12.5
      vertex -18.7372 2.5 -12.5
    endloop
  endfacet
  facet normal 6.12323e-17 1 0
    outer loop
      vertex -30 2.5 -12.5
      vertex -30 2.5 -7.5
      vertex -18.7372 2.5 -12.5
    endloop
  endfacet
  facet normal 6.12323e-17 1 0
    outer loop
      vertex -18.7372 2.5 -12.5
      vertex -30 2.5 -7.5
      vertex -18.7372 2.5 -7.5
    endloop
  endfacet
  facet normal 0.994522 0.104529 0
    outer loop
      vertex -13.7372 -2.5 -7.5
      vertex -13.6941 -2.91076 12.5
      vertex -13.6941 -2.91076 -12.5
    endloop
  endfacet
  facet normal 0.994522 0.104529 0
    outer loop
      vertex -13.7372 -2.5 -7.5
      vertex -14 0 -7.5
      vertex -14 0 12.5
    endloop
  endfacet
  facet normal 0.994522 0.104529 0
    outer loop
      vertex -14 0 12.5
      vertex -13.6941 -2.91076 12.5
      vertex -13.7372 -2.5 -7.5
    endloop
  endfacet
  facet normal 0.994522 0.104529 0
    outer loop
      vertex -13.7372 -2.5 -12.5
      vertex -13.7372 -2.5 -7.5
      vertex -13.6941 -2.91076 -12.5
    endloop
  endfacet
  facet normal -6.12323e-17 -1 0
    outer loop
      vertex -13.7372 -2.5 -7.5
      vertex -13.7372 -2.5 -12.5
      vertex -2.5 -2.5 -12.5
    endloop
  endfacet
  facet normal -6.12323e-17 -1 0
    outer loop
      vertex -2.5 -2.5 -7.5
      vertex -13.7372 -2.5 -7.5
      vertex -2.5 -2.5 -12.5
    endloop
  endfacet
  facet normal -1 0 0
    outer loop
      vertex -2.5 -13.703 -12.5
      vertex -2.5 -13.703 -7.5
      vertex -2.5 -2.5 -12.5
    endloop
  endfacet
  facet normal -1 0 0
    outer loop
      vertex -2.5 -2.5 -12.5
      vertex -2.5 -13.703 -7.5
      vertex -2.5 -2.5 -7.5
    endloop
  endfacet
  facet normal 0.207912 0.978148 0
    outer loop
      vertex -1.4634 -13.9233 12.5
      vertex -1.4634 -13.9233 -7.5
      vertex -4.32624 -13.3148 12.5
    endloop
  endfacet
  facet normal 0.207912 0.978148 0
    outer loop
      vertex -4.32624 -13.3148 12.5
      vertex -1.4634 -13.9233 -7.5
      vertex -2.5 -13.703 -7.5
    endloop
  endfacet
  facet normal 0.207912 0.978148 0
    outer loop
      vertex -4.32624 -13.3148 12.5
      vertex -2.5 -13.703 -7.5
      vertex -2.5 -13.703 -12.5
    endloop
  endfacet
  facet normal 0.207912 0.978148 0
    outer loop
      vertex -4.32624 -13.3148 12.5
      vertex -2.5 -13.703 -12.5
      vertex -4.32624 -13.3148 -12.5
    endloop
  endfacet
  facet normal 0.406736 0.913546 0
    outer loop
      vertex -4.32624 -13.3148 12.5
      vertex -4.32624 -13.3148 -12.5
      vertex -7 -12.1244 12.5
    endloop
  endfacet
  facet normal 0.406736 0.913546 0
    outer loop
      vertex -7 -12.1244 12.5
      vertex -4.32624 -13.3148 -12.5
      vertex -7 -12.1244 -12.5
    endloop
  endfacet
  facet normal 0.587785 0.809017 0
    outer loop
      vertex -7 -12.1244 12.5
      vertex -7 -12.1244 -12.5
      vertex -9.36783 -10.404 12.5
    endloop
  endfacet
  facet normal 0.587785 0.809017 0
    outer loop
      vertex -9.36783 -10.404 12.5
      vertex -7 -12.1244 -12.5
      vertex -9.36783 -10.404 -12.5
    endloop
  endfacet
  facet normal 0.743145 0.669131 0
    outer loop
      vertex -11.3262 -8.22899 12.5
      vertex -9.36783 -10.404 12.5
      vertex -9.36783 -10.404 -12.5
    endloop
  endfacet
  facet normal 0.743145 0.669131 0
    outer loop
      vertex -11.3262 -8.22899 -12.5
      vertex -11.3262 -8.22899 12.5
      vertex -9.36783 -10.404 -12.5
    endloop
  endfacet
  facet normal 0.866026 0.5 0
    outer loop
      vertex -12.7896 -5.69431 12.5
      vertex -11.3262 -8.22899 12.5
      vertex -11.3262 -8.22899 -12.5
    endloop
  endfacet
  facet normal 0.866026 0.5 0
    outer loop
      vertex -12.7896 -5.69431 -12.5
      vertex -12.7896 -5.69431 12.5
      vertex -11.3262 -8.22899 -12.5
    endloop
  endfacet
  facet normal 0.951057 0.309017 0
    outer loop
      vertex -13.6941 -2.91076 12.5
      vertex -12.7896 -5.69431 12.5
      vertex -12.7896 -5.69431 -12.5
    endloop
  endfacet
  facet normal 0.951057 0.309017 0
    outer loop
      vertex -13.6941 -2.91076 -12.5
      vertex -13.6941 -2.91076 12.5
      vertex -12.7896 -5.69431 -12.5
    endloop
  endfacet
  facet normal 0.951057 -0.309017 0
    outer loop
      vertex -12.7896 5.69431 -12.5
      vertex -12.7896 5.69431 12.5
      vertex -13.6941 2.91076 12.5
    endloop
  endfacet
  facet normal 0.951057 -0.309017 0
    outer loop
      vertex -13.6941 2.91076 -12.5
      vertex -12.7896 5.69431 -12.5
      vertex -13.6941 2.91076 12.5
    endloop
  endfacet
  facet normal 0.994522 -0.104529 0
    outer loop
      vertex -13.7372 2.5 -7.5
      vertex -13.7372 2.5 -12.5
      vertex -13.6941 2.91076 -12.5
    endloop
  endfacet
  facet normal 0.994522 -0.104529 0
    outer loop
      vertex -14 0 12.5
      vertex -13.7372 2.5 -7.5
      vertex -13.6941 2.91076 12.5
    endloop
  endfacet
  facet normal 0.994522 -0.104529 0
    outer loop
      vertex -13.6941 2.91076 12.5
      vertex -13.7372 2.5 -7.5
      vertex -13.6941 2.91076 -12.5
    endloop
  endfacet
  facet normal 0.994522 -0.104529 0
    outer loop
      vertex -14 0 -7.5
      vertex -13.7372 2.5 -7.5
      vertex -14 0 12.5
    endloop
  endfacet
  facet normal 0.866026 -0.5 0
    outer loop
      vertex -11.3262 8.22899 -12.5
      vertex -11.3262 8.22899 12.5
      vertex -12.7896 5.69431 12.5
    endloop
  endfacet
  facet normal 0.866026 -0.5 0
    outer loop
      vertex -12.7896 5.69431 -12.5
      vertex -11.3262 8.22899 -12.5
      vertex -12.7896 5.69431 12.5
    endloop
  endfacet
  facet normal 0.743145 -0.669131 0
    outer loop
      vertex -9.36783 10.404 -12.5
      vertex -9.36783 10.404 12.5
      vertex -11.3262 8.22899 12.5
    endloop
  endfacet
  facet normal 0.743145 -0.669131 0
    outer loop
      vertex -11.3262 8.22899 -12.5
      vertex -9.36783 10.404 -12.5
      vertex -11.3262 8.22899 12.5
    endloop
  endfacet
  facet normal 0.587785 -0.809017 0
    outer loop
      vertex -7 12.1244 -12.5
      vertex -7 12.1244 12.5
      vertex -9.36783 10.404 12.5
    endloop
  endfacet
  facet normal 0.587785 -0.809017 0
    outer loop
      vertex -9.36783 10.404 -12.5
      vertex -7 12.1244 -12.5
      vertex -9.36783 10.404 12.5
    endloop
  endfacet
  facet normal 0.406736 -0.913546 0
    outer loop
      vertex -4.32624 13.3148 -12.5
      vertex -4.32624 13.3148 12.5
      vertex -7 12.1244 12.5
    endloop
  endfacet
  facet normal 0.406736 -0.913546 0
    outer loop
      vertex -7 12.1244 -12.5
      vertex -4.32624 13.3148 -12.5
      vertex -7 12.1244 12.5
    endloop
  endfacet
  facet normal 0.207912 -0.978148 0
    outer loop
      vertex -1.4634 13.9233 12.5
      vertex -2.5 13.703 -7.5
      vertex -1.4634 13.9233 -7.5
    endloop
  endfacet
  facet normal 0.207912 -0.978148 0
    outer loop
      vertex -4.32624 13.3148 12.5
      vertex -2.5 13.703 -7.5
      vertex -1.4634 13.9233 12.5
    endloop
  endfacet
  facet normal 0.207912 -0.978148 0
    outer loop
      vertex -2.5 13.703 -12.5
      vertex -2.5 13.703 -7.5
      vertex -4.32624 13.3148 12.5
    endloop
  endfacet
  facet normal 0.207912 -0.978148 0
    outer loop
      vertex -4.32624 13.3148 -12.5
      vertex -2.5 13.703 -12.5
      vertex -4.32624 13.3148 12.5
    endloop
  endfacet
  facet normal -1 0 0
    outer loop
      vertex -2.5 2.5 -12.5
      vertex -2.5 2.5 -7.5
      vertex -2.5 13.703 -12.5
    endloop
  endfacet
  facet normal -1 0 0
    outer loop
      vertex -2.5 13.703 -12.5
      vertex -2.5 2.5 -7.5
      vertex -2.5 13.703 -7.5
    endloop
  endfacet
  facet normal 6.12323e-17 1 0
    outer loop
      vertex -13.7372 2.5 -12.5
      vertex -13.7372 2.5 -7.5
      vertex -2.5 2.5 -12.5
    endloop
  endfacet
  facet normal 6.12323e-17 1 0
    outer loop
      vertex -2.5 2.5 -12.5
      vertex -13.7372 2.5 -7.5
      vertex -2.5 2.5 -7.5
    endloop
  endfacet
  facet normal 1 0 0
    outer loop
      vertex 2.5 -13.703 -7.5
      vertex 2.5 -13.703 -12.5
      vertex 2.5 -2.5 -12.5
    endloop
  endfacet
  facet normal 1 0 0
    outer loop
      vertex 2.5 -2.5 -7.5
      vertex 2.5 -13.703 -7.5
      vertex 2.5 -2.5 -12.5
    endloop
  endfacet
  facet normal -6.12323e-17 -1 0
    outer loop
      vertex 2.5 -2.5 -7.5
      vertex 2.5 -2.5 -12.5
      vertex 13.7372 -2.5 -12.5
    endloop
  endfacet
  facet normal -6.12323e-17 -1 0
    outer loop
      vertex 13.7372 -2.5 -7.5
      vertex 2.5 -2.5 -7.5
      vertex 13.7372 -2.5 -12.5
    endloop
  endfacet
  facet normal -0.994522 0.104529 0
    outer loop
      vertex 14 0 12.5
      vertex 14 0 -7.5
      vertex 13.6941 -2.91076 12.5
    endloop
  endfacet
  facet normal -0.994522 0.104529 0
    outer loop
      vertex 13.6941 -2.91076 12.5
      vertex 14 0 -7.5
      vertex 13.7372 -2.5 -7.5
    endloop
  endfacet
  facet normal -0.994522 0.104529 0
    outer loop
      vertex 13.6941 -2.91076 12.5
      vertex 13.7372 -2.5 -7.5
      vertex 13.7372 -2.5 -12.5
    endloop
  endfacet
  facet normal -0.994522 0.104529 0
    outer loop
      vertex 13.6941 -2.91076 12.5
      vertex 13.7372 -2.5 -12.5
      vertex 13.6941 -2.91076 -12.5
    endloop
  endfacet
  facet normal -0.951057 0.309017 0
    outer loop
      vertex 13.6941 -2.91076 12.5
      vertex 13.6941 -2.91076 -12.5
      vertex 12.7896 -5.69431 12.5
    endloop
  endfacet
  facet normal -0.951057 0.309017 0
    outer loop
      vertex 12.7896 -5.69431 12.5
      vertex 13.6941 -2.91076 -12.5
      vertex 12.7896 -5.69431 -12.5
    endloop
  endfacet
  facet normal -0.866026 0.5 0
    outer loop
      vertex 12.7896 -5.69431 12.5
      vertex 12.7896 -5.69431 -12.5
      vertex 11.3262 -8.22899 12.5
    endloop
  endfacet
  facet normal -0.866026 0.5 0
    outer loop
      vertex 11.3262 -8.22899 12.5
      vertex 12.7896 -5.69431 -12.5
      vertex 11.3262 -8.22899 -12.5
    endloop
  endfacet
  facet normal -0.743145 0.669131 0
    outer loop
      vertex 11.3262 -8.22899 12.5
      vertex 11.3262 -8.22899 -12.5
      vertex 9.36783 -10.404 12.5
    endloop
  endfacet
  facet normal -0.743145 0.669131 0
    outer loop
      vertex 9.36783 -10.404 12.5
      vertex 11.3262 -8.22899 -12.5
      vertex 9.36783 -10.404 -12.5
    endloop
  endfacet
  facet normal -0.587785 0.809017 0
    outer loop
      vertex 9.36783 -10.404 12.5
      vertex 9.36783 -10.404 -12.5
      vertex 7 -12.1244 12.5
    endloop
  endfacet
  facet normal -0.587785 0.809017 0
    outer loop
      vertex 7 -12.1244 12.5
      vertex 9.36783 -10.404 -12.5
      vertex 7 -12.1244 -12.5
    endloop
  endfacet
  facet normal -0.406736 0.913546 0
    outer loop
      vertex 7 -12.1244 12.5
      vertex 7 -12.1244 -12.5
      vertex 4.32624 -13.3148 12.5
    endloop
  endfacet
  facet normal -0.406736 0.913546 0
    outer loop
      vertex 4.32624 -13.3148 12.5
      vertex 7 -12.1244 -12.5
      vertex 4.32624 -13.3148 -12.5
    endloop
  endfacet
  facet normal -0.207912 0.978148 0
    outer loop
      vertex 4.32624 -13.3148 12.5
      vertex 4.32624 -13.3148 -12.5
      vertex 1.4634 -13.9233 12.5
    endloop
  endfacet
  facet normal -0.207912 0.978148 0
    outer loop
      vertex 2.5 -13.703 -7.5
      vertex 4.32624 -13.3148 -12.5
      vertex 2.5 -13.703 -12.5
    endloop
  endfacet
  facet normal -0.207912 0.978148 0
    outer loop
      vertex 1.4634 -13.9233 12.5
      vertex 4.32624 -13.3148 -12.5
      vertex 2.5 -13.703 -7.5
    endloop
  endfacet
  facet normal -0.207912 0.978148 0
    outer loop
      vertex 1.4634 -13.9233 -7.5
      vertex 1.4634 -13.9233 12.5
      vertex 2.5 -13.703 -7.5
    endloop
  endfacet
  facet normal 1 0 0
    outer loop
      vertex 2.5 2.5 -7.5
      vertex 2.5 2.5 -12.5
      vertex 2.5 13.703 -12.5
    endloop
  endfacet
  facet normal 1 0 0
    outer loop
      vertex 2.5 13.703 -7.5
      vertex 2.5 2.5 -7.5
      vertex 2.5 13.703 -12.5
    endloop
  endfacet
  facet normal -0.207912 -0.978148 0
    outer loop
      vertex 2.5 13.703 -7.5
      vertex 2.5 13.703 -12.5
      vertex 4.32624 13.3148 -12.5
    endloop
  endfacet
  facet normal -0.207912 -0.978148 0
    outer loop
      vertex 1.4634 13.9233 12.5
      vertex 2.5 13.703 -7.5
      vertex 4.32624 13.3148 12.5
    endloop
  endfacet
  facet normal -0.207912 -0.978148 0
    outer loop
      vertex 4.32624 13.3148 12.5
      vertex 2.5 13.703 -7.5
      vertex 4.32624 13.3148 -12.5
    endloop
  endfacet
  facet normal -0.207912 -0.978148 0
    outer loop
      vertex 1.4634 13.9233 -7.5
      vertex 2.5 13.703 -7.5
      vertex 1.4634 13.9233 12.5
    endloop
  endfacet
  facet normal -0.406736 -0.913546 0
    outer loop
      vertex 7 12.1244 -12.5
      vertex 7 12.1244 12.5
      vertex 4.32624 13.3148 12.5
    endloop
  endfacet
  facet normal -0.406736 -0.913546 0
    outer loop
      vertex 4.32624 13.3148 -12.5
      vertex 7 12.1244 -12.5
      vertex 4.32624 13.3148 12.5
    endloop
  endfacet
  facet normal -0.587785 -0.809017 0
    outer loop
      vertex 9.36783 10.404 -12.5
      vertex 9.36783 10.404 12.5
      vertex 7 12.1244 12.5
    endloop
  endfacet
  facet normal -0.587785 -0.809017 0
    outer loop
      vertex 7 12.1244 -12.5
      vertex 9.36783 10.404 -12.5
      vertex 7 12.1244 12.5
    endloop
  endfacet
  facet normal -0.743145 -0.669131 0
    outer loop
      vertex 11.3262 8.22899 12.5
      vertex 9.36783 10.404 12.5
      vertex 11.3262 8.22899 -12.5
    endloop
  endfacet
  facet normal -0.743145 -0.669131 0
    outer loop
      vertex 11.3262 8.22899 -12.5
      vertex 9.36783 10.404 12.5
      vertex 9.36783 10.404 -12.5
    endloop
  endfacet
  facet normal -0.866026 -0.5 0
    outer loop
      vertex 12.7896 5.69431 12.5
      vertex 11.3262 8.22899 12.5
      vertex 12.7896 5.69431 -12.5
    endloop
  endfacet
  facet normal -0.866026 -0.5 0
    outer loop
      vertex 12.7896 5.69431 -12.5
      vertex 11.3262 8.22899 12.5
      vertex 11.3262 8.22899 -12.5
    endloop
  endfacet
  facet normal -0.951057 -0.309017 0
    outer loop
      vertex 13.6941 2.91076 12.5
      vertex 12.7896 5.69431 12.5
      vertex 13.6941 2.91076 -12.5
    endloop
  endfacet
  facet normal -0.951057 -0.309017 0
    outer loop
      vertex 13.6941 2.91076 -12.5
      vertex 12.7896 5.69431 12.5
      vertex 12.7896 5.69431 -12.5
    endloop
  endfacet
  facet normal -0.994522 -0.104529 0
    outer loop
      vertex 13.7372 2.5 -7.5
      vertex 14 0 -7.5
      vertex 14 0 12.5
    endloop
  endfacet
  facet normal -0.994522 -0.104529 0
    outer loop
      vertex 13.7372 2.5 -7.5
      vertex 14 0 12.5
      vertex 13.6941 2.91076 12.5
    endloop
  endfacet
  facet normal -0.994522 -0.104529 0
    outer loop
      vertex 13.7372 2.5 -7.5
      vertex 13.6941 2.91076 12.5
      vertex 13.7372 2.5 -12.5
    endloop
  endfacet
  facet normal -0.994522 -0.104529 0
    outer loop
      vertex 13.6941 2.91076 12.5
      vertex 13.6941 2.91076 -12.5
      vertex 13.7372 2.5 -12.5
    endloop
  endfacet
  facet normal 6.12323e-17 1 0
    outer loop
      vertex 2.5 2.5 -12.5
      vertex 2.5 2.5 -7.5
      vertex 13.7372 2.5 -12.5
    endloop
  endfacet
  facet normal 6.12323e-17 1 0
    outer loop
      vertex 13.7372 2.5 -12.5
      vertex 2.5 2.5 -7.5
      vertex 13.7372 2.5 -7.5
    endloop
  endfacet
  facet normal 0 0 1
    outer loop
      vertex -18.5848 3.95032 12.5
      vertex -19 0 12.5
      vertex -18.5848 -3.95032 12.5
    endloop
  endfacet
  facet normal 0 0 1
    outer loop
      vertex -15.3713 -11.1679 12.5
      vertex -18.5848 3.95032 12.5
      vertex -17.3574 -7.728 12.5
    endloop
  endfacet
  facet normal 0 0 1
    outer loop
      vertex -17.3574 -7.728 12.5
      vertex -18.5848 3.95032 12.5
      vertex -18.5848 -3.95032 12.5
    endloop
  endfacet
  facet normal 0 0 1
    outer loop
      vertex -12.7135 -14.1198 12.5
      vertex -18.5848 3.95032 12.5
      vertex -15.3713 -11.1679 12.5
    endloop
  endfacet
  facet normal 0 0 1
    outer loop
      vertex -9.5 -16.4545 12.5
      vertex -18.5848 3.95032 12.5
      vertex -12.7135 -14.1198 12.5
    endloop
  endfacet
  facet normal 0 0 1
    outer loop
      vertex -5.87132 -18.0701 12.5
      vertex -18.5848 3.95032 12.5
      vertex -9.5 -16.4545 12.5
    endloop
  endfacet
  facet normal 0 0 1
    outer loop
      vertex -11.3262 -8.22899 12.5
      vertex -18.5848 3.95032 12.5
      vertex -5.87132 -18.0701 12.5
    endloop
  endfacet
  facet normal 0 0 1
    outer loop
      vertex 9.36783 -10.404 12.5
      vertex 7 -12.1244 12.5
      vertex 12.7135 -14.1198 12.5
    endloop
  endfacet
  facet normal 0 0 1
    outer loop
      vertex 11.3262 -8.22899 12.5
      vertex 9.36783 -10.404 12.5
      vertex 15.3713 -11.1679 12.5
    endloop
  endfacet
  facet normal 0 0 1
    outer loop
      vertex -13.6941 2.91076 12.5
      vertex -12.7896 5.69431 12.5
      vertex -18.5848 3.95032 12.5
    endloop
  endfacet
  facet normal 0 0 1
    outer loop
      vertex 7 -12.1244 12.5
      vertex 4.32624 -13.3148 12.5
      vertex 9.5 -16.4545 12.5
    endloop
  endfacet
  facet normal 0 0 1
    outer loop
      vertex 9.36783 10.404 12.5
      vertex 11.3262 8.22899 12.5
      vertex 15.3713 11.1679 12.5
    endloop
  endfacet
  facet normal 0 0 1
    outer loop
      vertex 4.32624 13.3148 12.5
      vertex 7 12.1244 12.5
      vertex 12.7135 14.1198 12.5
    endloop
  endfacet
  facet normal 0 0 1
    outer loop
      vertex -1.98604 18.8959 12.5
      vertex -18.5848 3.95032 12.5
      vertex 1.98604 18.8959 12.5
    endloop
  endfacet
  facet normal 0 0 1
    outer loop
      vertex -5.87132 18.0701 12.5
      vertex -18.5848 3.95032 12.5
      vertex -1.98604 18.8959 12.5
    endloop
  endfacet
  facet normal 0 0 1
    outer loop
      vertex -9.5 16.4545 12.5
      vertex -18.5848 3.95032 12.5
      vertex -5.87132 18.0701 12.5
    endloop
  endfacet
  facet normal 0 0 1
    outer loop
      vertex -12.7135 14.1198 12.5
      vertex -18.5848 3.95032 12.5
      vertex -9.5 16.4545 12.5
    endloop
  endfacet
  facet normal 0 0 1
    outer loop
      vertex -15.3713 11.1679 12.5
      vertex -18.5848 3.95032 12.5
      vertex -12.7135 14.1198 12.5
    endloop
  endfacet
  facet normal 0 0 1
    outer loop
      vertex -17.3574 7.728 12.5
      vertex -18.5848 3.95032 12.5
      vertex -15.3713 11.1679 12.5
    endloop
  endfacet
  facet normal 0 0 1
    outer loop
      vertex -1.4634 -13.9233 12.5
      vertex -4.32624 -13.3148 12.5
      vertex 1.98604 -18.8959 12.5
    endloop
  endfacet
  facet normal 0 0 1
    outer loop
      vertex 12.7896 -5.69431 12.5
      vertex 11.3262 -8.22899 12.5
      vertex 17.3574 -7.728 12.5
    endloop
  endfacet
  facet normal 0 0 1
    outer loop
      vertex 11.3262 8.22899 12.5
      vertex 12.7896 5.69431 12.5
      vertex 17.3574 7.728 12.5
    endloop
  endfacet
  facet normal 0 0 1
    outer loop
      vertex 1.4634 13.9233 12.5
      vertex 4.32624 13.3148 12.5
      vertex 9.5 16.4545 12.5
    endloop
  endfacet
  facet normal 0 0 1
    outer loop
      vertex -9.36783 10.404 12.5
      vertex -18.5848 3.95032 12.5
      vertex -11.3262 8.22899 12.5
    endloop
  endfacet
  facet normal 0 0 1
    outer loop
      vertex 1.98604 18.8959 12.5
      vertex -18.5848 3.95032 12.5
      vertex -9.36783 10.404 12.5
    endloop
  endfacet
  facet normal 0 0 1
    outer loop
      vertex -1.4634 13.9233 12.5
      vertex 1.4634 13.9233 12.5
      vertex 5.87132 18.0701 12.5
    endloop
  endfacet
  facet normal 0 0 1
    outer loop
      vertex 1.98604 18.8959 12.5
      vertex -9.36783 10.404 12.5
      vertex -7 12.1244 12.5
    endloop
  endfacet
  facet normal 0 0 1
    outer loop
      vertex 1.98604 18.8959 12.5
      vertex -4.32624 13.3148 12.5
      vertex 5.87132 18.0701 12.5
    endloop
  endfacet
  facet normal 0 0 1
    outer loop
      vertex -4.32624 13.3148 12.5
      vertex -1.4634 13.9233 12.5
      vertex 5.87132 18.0701 12.5
    endloop
  endfacet
  facet normal 0 0 1
    outer loop
      vertex 5.87132 18.0701 12.5
      vertex 1.4634 13.9233 12.5
      vertex 9.5 16.4545 12.5
    endloop
  endfacet
  facet normal 0 0 1
    outer loop
      vertex -7 12.1244 12.5
      vertex -4.32624 13.3148 12.5
      vertex 1.98604 18.8959 12.5
    endloop
  endfacet
  facet normal 0 0 1
    outer loop
      vertex 9.5 16.4545 12.5
      vertex 4.32624 13.3148 12.5
      vertex 12.7135 14.1198 12.5
    endloop
  endfacet
  facet normal 0 0 1
    outer loop
      vertex 12.7135 14.1198 12.5
      vertex 7 12.1244 12.5
      vertex 15.3713 11.1679 12.5
    endloop
  endfacet
  facet normal 0 0 1
    outer loop
      vertex 7 12.1244 12.5
      vertex 9.36783 10.404 12.5
      vertex 15.3713 11.1679 12.5
    endloop
  endfacet
  facet normal 0 0 1
    outer loop
      vertex 15.3713 11.1679 12.5
      vertex 11.3262 8.22899 12.5
      vertex 17.3574 7.728 12.5
    endloop
  endfacet
  facet normal 0 0 1
    outer loop
      vertex 17.3574 7.728 12.5
      vertex 12.7896 5.69431 12.5
      vertex 18.5848 3.95032 12.5
    endloop
  endfacet
  facet normal 0 0 1
    outer loop
      vertex 13.6941 2.91076 12.5
      vertex 14 0 12.5
      vertex 19 0 12.5
    endloop
  endfacet
  facet normal 0 0 1
    outer loop
      vertex 18.5848 3.95032 12.5
      vertex 13.6941 2.91076 12.5
      vertex 19 0 12.5
    endloop
  endfacet
  facet normal 0 0 1
    outer loop
      vertex -12.7896 5.69431 12.5
      vertex -11.3262 8.22899 12.5
      vertex -18.5848 3.95032 12.5
    endloop
  endfacet
  facet normal 0 0 1
    outer loop
      vertex 19 0 12.5
      vertex 14 0 12.5
      vertex 18.5848 -3.95032 12.5
    endloop
  endfacet
  facet normal 0 0 1
    outer loop
      vertex 18.5848 -3.95032 12.5
      vertex 13.6941 -2.91076 12.5
      vertex 17.3574 -7.728 12.5
    endloop
  endfacet
  facet normal 0 0 1
    outer loop
      vertex 12.7896 5.69431 12.5
      vertex 13.6941 2.91076 12.5
      vertex 18.5848 3.95032 12.5
    endloop
  endfacet
  facet normal 0 0 1
    outer loop
      vertex 13.6941 -2.91076 12.5
      vertex 12.7896 -5.69431 12.5
      vertex 17.3574 -7.728 12.5
    endloop
  endfacet
  facet normal 0 0 1
    outer loop
      vertex 17.3574 -7.728 12.5
      vertex 11.3262 -8.22899 12.5
      vertex 15.3713 -11.1679 12.5
    endloop
  endfacet
  facet normal 0 0 1
    outer loop
      vertex 15.3713 -11.1679 12.5
      vertex 9.36783 -10.404 12.5
      vertex 12.7135 -14.1198 12.5
    endloop
  endfacet
  facet normal 0 0 1
    outer loop
      vertex 14 0 12.5
      vertex 13.6941 -2.91076 12.5
      vertex 18.5848 -3.95032 12.5
    endloop
  endfacet
  facet normal 0 0 1
    outer loop
      vertex 12.7135 -14.1198 12.5
      vertex 7 -12.1244 12.5
      vertex 9.5 -16.4545 12.5
    endloop
  endfacet
  facet normal 0 0 1
    outer loop
      vertex 9.5 -16.4545 12.5
      vertex 4.32624 -13.3148 12.5
      vertex 5.87132 -18.0701 12.5
    endloop
  endfacet
  facet normal 0 0 1
    outer loop
      vertex 4.32624 -13.3148 12.5
      vertex 1.4634 -13.9233 12.5
      vertex 5.87132 -18.0701 12.5
    endloop
  endfacet
  facet normal 0 0 1
    outer loop
      vertex 5.87132 -18.0701 12.5
      vertex -1.4634 -13.9233 12.5
      vertex 1.98604 -18.8959 12.5
    endloop
  endfacet
  facet normal 0 0 1
    outer loop
      vertex 1.98604 -18.8959 12.5
      vertex -4.32624 -13.3148 12.5
      vertex -1.98604 -18.8959 12.5
    endloop
  endfacet
  facet normal 0 0 1
    outer loop
      vertex -1.98604 -18.8959 12.5
      vertex -7 -12.1244 12.5
      vertex -5.87132 -18.0701 12.5
    endloop
  endfacet
  facet normal 0 0 1
    outer loop
      vertex -7 -12.1244 12.5
      vertex -9.36783 -10.404 12.5
      vertex -5.87132 -18.0701 12.5
    endloop
  endfacet
  facet normal 0 0 1
    outer loop
      vertex -12.7896 -5.69431 12.5
      vertex -18.5848 3.95032 12.5
      vertex -11.3262 -8.22899 12.5
    endloop
  endfacet
  facet normal 0 0 1
    outer loop
      vertex -13.6941 -2.91076 12.5
      vertex -18.5848 3.95032 12.5
      vertex -12.7896 -5.69431 12.5
    endloop
  endfacet
  facet normal 0 0 1
    outer loop
      vertex -9.36783 -10.404 12.5
      vertex -11.3262 -8.22899 12.5
      vertex -5.87132 -18.0701 12.5
    endloop
  endfacet
  facet normal 0 0 1
    outer loop
      vertex -13.6941 -2.91076 12.5
      vertex -14 0 12.5
      vertex -18.5848 3.95032 12.5
    endloop
  endfacet
  facet normal 0 0 1
    outer loop
      vertex -4.32624 -13.3148 12.5
      vertex -7 -12.1244 12.5
      vertex -1.98604 -18.8959 12.5
    endloop
  endfacet
  facet normal 0 0 1
    outer loop
      vertex 1.4634 -13.9233 12.5
      vertex -1.4634 -13.9233 12.5
      vertex 5.87132 -18.0701 12.5
    endloop
  endfacet
  facet normal 0 0 1
    outer loop
      vertex -14 0 12.5
      vertex -13.6941 2.91076 12.5
      vertex -18.5848 3.95032 12.5
    endloop
  endfacet
  facet normal 0 -1 0
    outer loop
      vertex -1.98604 -18.8959 12.5
      vertex -1.98604 -18.8959 -7.5
      vertex 1.98604 -18.8959 -7.5
    endloop
  endfacet
  facet normal 0 -1 0
    outer loop
      vertex 1.98604 -18.8959 12.5
      vertex -1.98604 -18.8959 12.5
      vertex 1.98604 -18.8959 -7.5
    endloop
  endfacet
  facet normal 0 0 1
    outer loop
      vertex -2.5 -18.7867 -7.5
      vertex -2.5 -30 -7.5
      vertex 2.5 -30 -7.5
    endloop
  endfacet
  facet normal 0 0 1
    outer loop
      vertex -1.98604 -18.8959 -7.5
      vertex -2.5 -18.7867 -7.5
      vertex 2.5 -30 -7.5
    endloop
  endfacet
  facet normal 0 0 1
    outer loop
      vertex 2.5 -18.7867 -7.5
      vertex 1.98604 -18.8959 -7.5
      vertex 2.5 -30 -7.5
    endloop
  endfacet
  facet normal 0 0 1
    outer loop
      vertex 1.98604 -18.8959 -7.5
      vertex -1.98604 -18.8959 -7.5
      vertex 2.5 -30 -7.5
    endloop
  endfacet
  facet normal 0 0 1
    outer loop
      vertex 19 0 -7.5
      vertex 18.7372 -2.5 -7.5
      vertex 30 -2.5 -7.5
    endloop
  endfacet
  facet normal 0 0 1
    outer loop
      vertex 18.7372 2.5 -7.5
      vertex 19 0 -7.5
      vertex 30 2.5 -7.5
    endloop
  endfacet
  facet normal 0 0 1
    outer loop
      vertex 30 2.5 -7.5
      vertex 19 0 -7.5
      vertex 30 -2.5 -7.5
    endloop
  endfacet
  facet normal 0 0 1
    outer loop
      vertex -2.5 30 -7.5
      vertex -2.5 18.7867 -7.5
      vertex -1.98604 18.8959 -7.5
    endloop
  endfacet
  facet normal 0 0 1
    outer loop
      vertex 1.98604 18.8959 -7.5
      vertex -2.5 30 -7.5
      vertex -1.98604 18.8959 -7.5
    endloop
  endfacet
  facet normal 0 0 1
    outer loop
      vertex 1.98604 18.8959 -7.5
      vertex 2.5 18.7867 -7.5
      vertex -2.5 30 -7.5
    endloop
  endfacet
  facet normal 0 0 1
    outer loop
      vertex 2.5 18.7867 -7.5
      vertex 2.5 30 -7.5
      vertex -2.5 30 -7.5
    endloop
  endfacet
  facet normal 0 1 0
    outer loop
      vertex -1.98604 18.8959 -7.5
      vertex -1.98604 18.8959 12.5
      vertex 1.98604 18.8959 -7.5
    endloop
  endfacet
  facet normal 0 1 0
    outer loop
      vertex 1.98604 18.8959 -7.5
      vertex -1.98604 18.8959 12.5
      vertex 1.98604 18.8959 12.5
    endloop
  endfacet
  facet normal 0 0 1
    outer loop
      vertex -13.7372 2.5 -7.5
      vertex -14 0 -7.5
      vertex -13.7372 -2.5 -7.5
    endloop
  endfacet
  facet normal 0 0 1
    outer loop
      vertex 2.5 -2.5 -7.5
      vertex -13.7372 2.5 -7.5
      vertex -2.5 -2.5 -7.5
    endloop
  endfacet
  facet normal 0 0 1
    outer loop
      vertex -2.5 -2.5 -7.5
      vertex -13.7372 2.5 -7.5
      vertex -13.7372 -2.5 -7.5
    endloop
  endfacet
  facet normal 0 0 1
    outer loop
      vertex -1.4634 -13.9233 -7.5
      vertex -2.5 -2.5 -7.5
      vertex -2.5 -13.703 -7.5
    endloop
  endfacet
  facet normal 0 0 1
    outer loop
      vertex 1.4634 -13.9233 -7.5
      vertex -2.5 -2.5 -7.5
      vertex -1.4634 -13.9233 -7.5
    endloop
  endfacet
  facet normal 0 0 1
    outer loop
      vertex 2.5 -13.703 -7.5
      vertex -2.5 -2.5 -7.5
      vertex 1.4634 -13.9233 -7.5
    endloop
  endfacet
  facet normal 0 0 1
    outer loop
      vertex 2.5 -2.5 -7.5
      vertex -2.5 -2.5 -7.5
      vertex 2.5 -13.703 -7.5
    endloop
  endfacet
  facet normal 0 0 1
    outer loop
      vertex 13.7372 -2.5 -7.5
      vertex -13.7372 2.5 -7.5
      vertex 2.5 -2.5 -7.5
    endloop
  endfacet
  facet normal 0 0 1
    outer loop
      vertex 14 0 -7.5
      vertex -13.7372 2.5 -7.5
      vertex 13.7372 -2.5 -7.5
    endloop
  endfacet
  facet normal 0 0 1
    outer loop
      vertex 2.5 2.5 -7.5
      vertex -2.5 2.5 -7.5
      vertex 14 0 -7.5
    endloop
  endfacet
  facet normal 0 0 1
    outer loop
      vertex -2.5 2.5 -7.5
      vertex -13.7372 2.5 -7.5
      vertex 14 0 -7.5
    endloop
  endfacet
  facet normal 0 0 1
    outer loop
      vertex 13.7372 2.5 -7.5
      vertex 2.5 2.5 -7.5
      vertex 14 0 -7.5
    endloop
  endfacet
  facet normal 0 0 1
    outer loop
      vertex 2.5 13.703 -7.5
      vertex -2.5 2.5 -7.5
      vertex 2.5 2.5 -7.5
    endloop
  endfacet
  facet normal 0 0 1
    outer loop
      vertex -2.5 13.703 -7.5
      vertex 1.4634 13.9233 -7.5
      vertex -1.4634 13.9233 -7.5
    endloop
  endfacet
  facet normal 0 0 1
    outer loop
      vertex -2.5 13.703 -7.5
      vertex 2.5 13.703 -7.5
      vertex 1.4634 13.9233 -7.5
    endloop
  endfacet
  facet normal 0 0 1
    outer loop
      vertex -2.5 13.703 -7.5
      vertex -2.5 2.5 -7.5
      vertex 2.5 13.703 -7.5
    endloop
  endfacet
  facet normal 0 1 0
    outer loop
      vertex 1.4634 -13.9233 12.5
      vertex 1.4634 -13.9233 -7.5
      vertex -1.4634 -13.9233 12.5
    endloop
  endfacet
  facet normal 0 1 0
    outer loop
      vertex -1.4634 -13.9233 12.5
      vertex 1.4634 -13.9233 -7.5
      vertex -1.4634 -13.9233 -7.5
    endloop
  endfacet
  facet normal 0 -1 0
    outer loop
      vertex 1.4634 13.9233 -7.5
      vertex 1.4634 13.9233 12.5
      vertex -1.4634 13.9233 12.5
    endloop
  endfacet
  facet normal 0 -1 0
    outer loop
      vertex -1.4634 13.9233 -7.5
      vertex 1.4634 13.9233 -7.5
      vertex -1.4634 13.9233 12.5
    endloop
  endfacet
endsolid OpenSCAD_Model
